<svg xmlns="http://www.w3.org/2000/svg" xmlns:xlink="http://www.w3.org/1999/xlink" width="960" zoomAndPan="magnify" viewBox="0 0 720 359.999987" height="480" preserveAspectRatio="xMidYMid meet" version="1.0"><defs><clipPath id="b3626b6052"><path d="M 159.085938 107 L 176 107 L 176 131 L 159.085938 131 Z M 159.085938 107 " clip-rule="nonzero"/></clipPath><clipPath id="c240a66478"><path d="M 159.085938 107 L 177 107 L 177 131 L 159.085938 131 Z M 159.085938 107 " clip-rule="nonzero"/></clipPath><clipPath id="3ae5cf82fd"><path d="M 514 146 L 539.992188 146 L 539.992188 158 L 514 158 Z M 514 146 " clip-rule="nonzero"/></clipPath></defs><rect x="-72" width="864" fill="#ffffff" y="-35.999999" height="431.999984" fill-opacity="1"/><rect x="-72" width="864" fill="#ffffff" y="-35.999999" height="431.999984" fill-opacity="1"/><path stroke-linecap="round" transform="matrix(0.352691, 0, 0, 0.352691, 244.559819, 278.923629)" fill-opacity="1" fill="#ffffff" fill-rule="nonzero" stroke-linejoin="round" d="M 24.506742 -13.816198 C 24.506742 -13.816198 19.290153 13.817326 19.290153 13.817326 C 19.290153 13.817326 -24.502614 13.817326 -24.502614 13.817326 C -24.502614 13.817326 -20.293901 -12.985531 -20.293901 -12.985531 C -20.293901 -12.985531 24.506742 -13.816198 24.506742 -13.816198 Z M 24.506742 -13.816198 " stroke="#000001" stroke-width="2" stroke-opacity="1" stroke-miterlimit="4"/><path stroke-linecap="round" transform="matrix(0.352691, 0, 0, 0.352691, 244.809529, 277.334743)" fill-opacity="1" fill="#000001" fill-rule="nonzero" stroke-linejoin="round" d="M 22.093091 -0.295653 C 22.093091 -0.295653 -23.792957 9.317934 -23.792957 9.317934 C -23.792957 9.317934 -21.001916 -8.480493 -21.001916 -8.480493 C -21.001916 -8.480493 23.798728 -9.31116 23.798728 -9.31116 C 23.798728 -9.31116 22.093091 -0.295653 22.093091 -0.295653 Z M 22.093091 -0.295653 " stroke="#000001" stroke-width="2" stroke-opacity="1" stroke-miterlimit="4"/><path stroke-linecap="round" transform="matrix(0.352691, 0, 0, 0.352691, 251.665482, 288.932965)" fill-opacity="1" fill="#1fba7e" fill-rule="nonzero" stroke-linejoin="round" d="M -51.704741 -13.211362 C -48.603584 -19.048182 -38.35869 -17.752342 -24.004764 -17.752342 C -9.650837 -17.752342 -1.399544 -16.844146 10.119039 -9.290613 C 21.626547 -1.748156 38.118057 -6.632479 46.46903 -0.219729 C 54.808927 6.181945 48.983182 19.051747 48.983182 19.051747 C 48.983182 19.051747 -21.246949 19.051747 -21.246949 19.051747 C -21.246949 19.051747 -29.786206 10.357431 -29.786206 10.357431 C -29.786206 10.357431 -34.626227 19.051747 -34.626227 19.051747 C -34.626227 19.051747 -47.44065 19.051747 -47.44065 19.051747 C -47.44065 19.051747 -54.805898 -7.374541 -51.704741 -13.211362 Z M -51.704741 -13.211362 " stroke="#000001" stroke-width="2" stroke-opacity="1" stroke-miterlimit="4"/><path stroke-linecap="round" transform="matrix(0.352691, 0, 0, 0.352691, 257.386839, 289.496228)" fill="none" stroke-linejoin="round" d="M 6.135521 -6.678945 C 6.135521 -6.678945 -6.136201 6.678181 -6.136201 6.678181 " stroke="#000001" stroke-width="2" stroke-opacity="1" stroke-miterlimit="4"/><path stroke-linecap="round" transform="matrix(0.352691, 0, 0, 0.352691, 252.920737, 286.85986)" fill="none" stroke-linejoin="round" d="M 7.235569 -2.991776 C 7.235569 -2.991776 -7.240189 2.989027 -7.240189 2.989027 " stroke="#000001" stroke-width="2" stroke-opacity="1" stroke-miterlimit="4"/><path stroke-linecap="round" transform="matrix(0.352691, 0, 0, 0.352691, 263.300061, 230.126363)" fill-opacity="1" fill="#fdbd00" fill-rule="nonzero" stroke-linejoin="round" d="M -49.350658 -133.796638 C -49.350658 -133.796638 70.043887 -133.796638 70.043887 -133.796638 C 70.043887 -133.796638 73.145044 -63.898774 79.757154 -20.715162 C 86.369264 22.479525 91.973498 133.799986 91.973498 133.799986 C 91.973498 133.799986 15.142333 133.799986 15.142333 133.799986 C 15.142333 133.799986 2.239304 67.9004 2.239304 67.9004 C 2.239304 67.9004 -15.138251 133.799986 -15.138251 133.799986 C -15.138251 133.799986 -91.980491 133.799986 -91.980491 133.799986 C -91.980491 133.799986 -61.04645 16.199682 -60.005347 -51.560599 C -58.97532 -119.32088 -49.350658 -133.796638 -49.350658 -133.796638 Z M -49.350658 -133.796638 " stroke="#000001" stroke-width="2" stroke-opacity="1" stroke-miterlimit="4"/><path stroke-linecap="round" transform="matrix(0.352691, 0, 0, 0.352691, 259.675099, 234.557223)" fill="none" stroke-linejoin="round" d="M 16.360537 -24.074383 C 16.360537 -24.074383 -16.367745 24.07108 -16.367745 24.07108 " stroke="#000001" stroke-width="2" stroke-opacity="1" stroke-miterlimit="4"/><path stroke-linecap="round" transform="matrix(0.352691, 0, 0, 0.352691, 237.634389, 288.544664)" fill="none" stroke-linejoin="round" d="M -12.542005 -9.917435 C -12.542005 -9.917435 12.533065 2.808385 7.00636 6.352564 C 1.479655 9.896743 -10.171835 9.907819 -10.171835 9.907819 " stroke="#000001" stroke-width="2" stroke-opacity="1" stroke-miterlimit="4"/><path stroke-linecap="round" transform="matrix(0.352691, 0, 0, 0.352691, 313.510887, 131.531255)" fill-opacity="1" fill="#000001" fill-rule="nonzero" stroke-linejoin="round" d="M -18.416299 -14.065977 C -18.416299 -14.065977 -7.695157 -14.508999 3.125666 -7.420641 C 13.946489 -0.332282 18.40994 14.50897 18.40994 14.50897 C 18.40994 14.50897 -18.416299 -14.065977 -18.416299 -14.065977 Z M -18.416299 -14.065977 " stroke="#000001" stroke-width="2" stroke-opacity="1" stroke-miterlimit="4"/><path stroke-linecap="round" transform="matrix(0.352691, 0, 0, 0.352691, 321.027118, 129.796367)" fill-opacity="1" fill="#ffffff" fill-rule="nonzero" stroke-linejoin="round" d="M -35.27502 5.051895 C -35.27502 5.051895 -26.226287 -9.922263 -21.186907 -12.314584 C -16.136451 -14.69583 -10.831257 -13.510745 -10.831257 -13.510745 C -10.831257 -13.510745 -3.299876 -18.727334 -0.652817 -16.955244 C 2.005318 -15.183155 -4.540339 -11.207028 -4.540339 -11.207028 C -4.540339 -11.207028 -1.350577 -11.384237 1.207877 -11.162726 C 3.777407 -10.941215 5.682404 -10.276681 5.682404 -10.276681 C 5.682404 -10.276681 9.093676 -12.004469 12.272362 -12.801909 C 15.462124 -13.599349 18.208863 -14.119901 19.405023 -13.466443 C 20.601184 -12.801909 20.158162 -11.162726 20.158162 -11.162726 C 20.158162 -11.162726 23.514057 -12.403189 25.507657 -12.536095 C 27.501258 -12.669002 29.273348 -12.270282 29.494859 -11.118424 C 29.716371 -9.966565 28.077188 -8.859009 28.077188 -8.859009 C 28.077188 -8.859009 32.352354 -9.789356 33.814328 -7.928662 C 35.276302 -6.067968 33.083341 -4.738901 31.023287 -4.14082 C 28.963232 -3.54274 27.335125 -2.922509 27.335125 -2.922509 C 27.335125 -2.922509 30.436282 -2.424108 29.816051 -0.0871652 C 29.184744 2.249778 24.998182 2.559894 22.151763 2.958614 C 19.294268 3.357334 12.294513 3.756054 12.294513 3.756054 C 12.294513 3.756054 9.049374 5.616749 5.793159 6.879363 C 2.536944 8.141977 -8.483239 8.075523 -8.483239 8.075523 C -8.483239 8.075523 -15.31686 18.730213 -15.31686 18.730213 C -15.31686 18.730213 -24.919371 16.769838 -28.928724 14.078477 C -32.949152 11.398191 -35.27502 5.051895 -35.27502 5.051895 Z M -35.27502 5.051895 " stroke="#000001" stroke-width="2" stroke-opacity="1" stroke-miterlimit="4"/><path stroke-linecap="round" transform="matrix(0.352691, 0, 0, 0.352691, 324.963854, 126.575248)" fill="none" stroke-linejoin="round" d="M 8.996161 -2.029747 C 8.996161 -2.029747 -2.323062 1.514432 -2.323062 1.514432 C -2.323062 1.514432 -8.99055 2.023908 -8.99055 2.023908 " stroke="#000001" stroke-width="2" stroke-opacity="1" stroke-miterlimit="4"/><path stroke-linecap="round" transform="matrix(0.352691, 0, 0, 0.352691, 326.77774, 127.531029)" fill="none" stroke-linejoin="round" d="M 11.772196 -2.435997 C 11.772196 -2.435997 0.464049 0.487951 0.464049 0.487951 C 0.464049 0.487951 -11.774446 2.43725 -11.774446 2.43725 " stroke="#000001" stroke-width="2" stroke-opacity="1" stroke-miterlimit="4"/><path stroke-linecap="round" transform="matrix(0.352691, 0, 0, 0.352691, 327.092332, 129.187269)" fill="none" stroke-linejoin="round" d="M 10.138158 -1.195506 C 10.138158 -1.195506 6.516449 -1.428092 4.002297 -1.029372 C 1.488145 -0.641728 -0.715892 0.166788 -0.715892 0.166788 C -0.715892 0.166788 -4.448356 0.3883 -6.353352 0.476904 C -8.247273 0.554433 -10.141194 1.418327 -10.141194 1.418327 " stroke="#000001" stroke-width="2" stroke-opacity="1" stroke-miterlimit="4"/><path stroke-linecap="round" transform="matrix(0.352691, 0, 0, 0.352691, 315.708152, 127.834356)" fill="none" stroke-linejoin="round" d="M -6.604211 3.06134 C -6.604211 3.06134 -5.696015 -0.571444 -2.118609 -1.811906 C 1.458797 -3.063445 6.597857 -0.571444 6.597857 -0.571444 " stroke="#000001" stroke-width="2" stroke-opacity="1" stroke-miterlimit="4"/><path stroke-linecap="round" transform="matrix(0.352691, 0, 0, 0.352691, 316.829724, 132.110733)" fill="none" stroke-linejoin="round" d="M 3.417813 1.513502 C 3.417813 1.513502 -3.415808 -1.510126 -3.415808 -1.510126 " stroke="#000001" stroke-width="2" stroke-opacity="1" stroke-miterlimit="4"/><path stroke-linecap="round" transform="matrix(0.352691, 0, 0, 0.352691, 280.437678, 145.588465)" fill-opacity="1" fill="#1fba7e" fill-rule="nonzero" stroke-linejoin="round" d="M -85.470606 -87.160753 C -85.470606 -87.160753 -65.224481 -127.232132 -32.21931 -127.453643 C 0.774785 -127.664079 23.136343 -105.125312 33.84641 -66.737419 C 44.556477 -28.349525 47.236763 -3.030793 47.236763 -3.030793 C 47.236763 -3.030793 75.357612 -53.911919 75.357612 -53.911919 C 75.357612 -53.911919 112.183851 -25.348048 112.183851 -25.348048 C 112.183851 -25.348048 101.030762 36.83015 73.574447 60.93057 C 46.118131 85.030991 31.166124 67.719889 31.166124 67.719889 C 31.166124 67.719889 31.830658 115.610614 31.830658 115.610614 C 31.830658 115.610614 7.730238 127.660824 -36.46125 127.660824 C -80.652737 127.660824 -112.184859 109.973154 -112.184859 109.973154 C -112.184859 109.973154 -105.938243 77.366703 -105.938243 77.366703 C -105.938243 77.366703 -106.237283 49.334458 -101.72953 12.785108 C -95.61582 -36.700498 -85.470606 -87.160753 -85.470606 -87.160753 Z M -85.470606 -87.160753 " stroke="#000001" stroke-width="2" stroke-opacity="1" stroke-miterlimit="4"/><path stroke-linecap="round" transform="matrix(0.352691, 0, 0, 0.352691, 289.717666, 142.522518)" fill="none" stroke-linejoin="round" d="M 4.85417 76.412902 C 4.85417 76.412902 -4.859097 -76.418761 -4.859097 -76.418761 " stroke="#000001" stroke-width="2" stroke-opacity="1" stroke-miterlimit="4"/><path stroke-linecap="round" transform="matrix(0.352691, 0, 0, 0.352691, 298.377998, 163.802111)" fill-opacity="1" fill="#000001" fill-rule="nonzero" stroke-linejoin="round" d="M 22.818231 9.20002 C 22.785004 9.233247 22.740702 9.266474 22.707475 9.288625 C -4.228289 32.946023 -19.158145 16.709251 -19.689771 16.100095 C -19.700847 16.089019 -19.700847 16.077944 -19.700847 16.077944 C -19.700847 16.077944 -22.81308 -32.942488 -22.81308 -32.942488 C -22.81308 -32.942488 -12.601413 -8.077854 1.453474 2.023057 C 7.257068 6.187468 15.331152 8.236447 22.818231 9.20002 Z M 22.818231 9.20002 " stroke="#000001" stroke-width="2" stroke-opacity="1" stroke-miterlimit="4"/><path stroke-linecap="round" transform="matrix(0.352691, 0, 0, 0.352691, 297.346044, 146.978412)" fill="none" stroke-linejoin="round" d="M -0.704263 -6.971773 C -0.704263 -6.971773 0.702333 6.972358 0.702333 6.972358 " stroke="#000001" stroke-width="2" stroke-opacity="1" stroke-miterlimit="4"/><path stroke-linecap="round" transform="matrix(0.352691, 0, 0, 0.352691, 276.609191, 145.341932)" fill="none" stroke-linejoin="round" d="M 12.183639 -36.001493 C 12.183639 -36.001493 -12.182595 36.000728 -12.182595 36.000728 " stroke="#000001" stroke-width="2" stroke-opacity="1" stroke-miterlimit="4"/><path stroke-linecap="round" transform="matrix(0.352691, 0, 0, 0.352691, 252.240726, 143.428935)" fill-opacity="1" fill="#1fba7e" fill-rule="nonzero" stroke-linejoin="round" d="M -24.616826 78.383877 C -24.616826 78.383877 -43.522809 53.386336 -48.207771 16.859137 C -52.892733 -19.679138 -7.139591 -87.151454 -7.139591 -87.151454 C -7.139591 -87.151454 -7.084214 -89.200433 1.477195 -98.182713 C 1.477195 -98.182713 16.706091 -106.910255 24.104566 -104.3518 C 24.104566 -104.3518 46.200309 -106.699819 49.556204 -86.608752 C 52.901024 -66.517685 5.021374 6.126918 5.021374 6.126918 C 5.021374 6.126918 19.641115 23.426944 28.789528 35.477155 C 37.949017 47.53844 49.722338 60.707282 49.722338 60.707282 C 49.722338 60.707282 3.127453 106.903446 3.127453 106.903446 C 3.127453 106.903446 -24.616826 78.383877 -24.616826 78.383877 " stroke="#000001" stroke-width="2" stroke-opacity="1" stroke-miterlimit="4"/><path stroke-linecap="round" transform="matrix(0.352691, 0, 0, 0.352691, 251.629506, 148.739403)" fill="none" stroke-linejoin="round" d="M 6.754393 -8.930082 C 6.754393 -8.930082 -6.757791 8.923722 -6.757791 8.923722 " stroke="#000001" stroke-width="2" stroke-opacity="1" stroke-miterlimit="4"/><path stroke-linecap="round" transform="matrix(0.352691, 0, 0, 0.352691, 266.57302, 179.260563)" fill-opacity="1" fill="#ffffff" fill-rule="nonzero" stroke-linejoin="round" d="M -7.26217 -24.15252 C -7.26217 -24.15252 -2.134185 -20.918456 3.935222 -19.21282 C 10.004629 -17.507184 16.827175 -11.171963 15.021858 -10.020105 C 13.205466 -8.857171 1.144181 -12.512106 1.144181 -12.512106 C 1.144181 -12.512106 5.674085 -4.925347 8.63126 -0.938145 C 11.577359 3.060133 19.695745 7.689717 21.789026 8.63114 C 23.882307 9.572562 24.901258 11.754448 23.760476 13.138893 C 22.608617 14.512263 18.521735 13.493311 18.521735 13.493311 C 18.521735 13.493311 23.760476 16.827055 22.520013 19.00894 C 21.27955 21.17975 15.475956 18.643447 15.475956 18.643447 C 15.475956 18.643447 16.649966 20.969314 15.010783 22.564195 C 13.382675 24.159076 5.773765 18.133971 5.773765 18.133971 C 5.773765 18.133971 6.626583 21.910737 4.156733 22.121173 C 1.686883 22.342684 -5.899876 17.170397 -14.97076 7.911228 C -24.030569 -1.34794 -24.894463 -6.66421 -24.894463 -6.66421 C -24.894463 -6.66421 -7.26217 -24.15252 -7.26217 -24.15252 Z M -7.26217 -24.15252 " stroke="#000001" stroke-width="2" stroke-opacity="1" stroke-miterlimit="4"/><path stroke-linecap="round" transform="matrix(0.352691, 0, 0, 0.352691, 270.203634, 181.678258)" fill="none" stroke-linejoin="round" d="M 8.227697 6.638315 C 8.227697 6.638315 0.995356 1.842597 -2.415917 -0.837689 C -5.82719 -3.506899 -8.230586 -6.641282 -8.230586 -6.641282 " stroke="#000001" stroke-width="2" stroke-opacity="1" stroke-miterlimit="4"/><path stroke-linecap="round" transform="matrix(0.352691, 0, 0, 0.352691, 269.049983, 183.350011)" fill="none" stroke-linejoin="round" d="M 8.452915 7.048455 C 8.452915 7.048455 3.158797 3.371369 -0.706574 0.148381 C -4.58302 -3.074607 -8.459466 -7.050734 -8.459466 -7.050734 " stroke="#000001" stroke-width="2" stroke-opacity="1" stroke-miterlimit="4"/><path stroke-linecap="round" transform="matrix(0.352691, 0, 0, 0.352691, 266.887288, 184.072325)" fill="none" stroke-linejoin="round" d="M 4.882707 4.490972 C 4.882707 4.490972 2.18027 2.763185 -0.333882 0.359788 C -2.848034 -2.032533 -4.885937 -4.491307 -4.885937 -4.491307 " stroke="#000001" stroke-width="2" stroke-opacity="1" stroke-miterlimit="4"/><path stroke-linecap="round" transform="matrix(0.352691, 0, 0, 0.352691, 276.167629, 88.141457)" fill-opacity="1" fill="#ffffff" fill-rule="nonzero" stroke-linejoin="round" d="M -8.15065 49.638304 C 5.317232 51.798039 10.866088 47.855139 10.866088 47.855139 C 10.866088 47.855139 9.503794 35.749551 9.503794 35.749551 C 9.503794 35.749551 18.142731 34.464786 25.009579 33.002812 C 31.876427 31.551914 32.518809 19.313419 32.518809 19.313419 C 32.518809 19.313419 27.756318 20.720015 23.381472 17.386271 C 19.017701 14.063603 21.299266 9.267885 24.422574 7.750533 C 27.545882 6.222106 33.582063 7.861289 33.582063 7.861289 C 33.582063 7.861289 33.582063 -0.99916 33.582063 -0.99916 C 33.582063 -0.99916 38.433159 0.462814 40.792253 -0.711195 C 43.151348 -1.89628 34.623166 -11.543093 31.566311 -19.86084 C 28.520532 -28.189661 29.484106 -34.724242 18.386394 -42.820477 C 7.288682 -50.927788 -14.242208 -51.791681 -27.189539 -40.538912 C -40.13687 -29.275066 -43.160498 -12.993992 -39.051465 2.124149 C -34.953507 17.253365 -25.317769 27.520409 -25.317769 27.520409 C -25.317769 27.520409 -27.964828 39.625997 -27.964828 39.625997 C -27.964828 39.625997 -21.629608 47.47857 -8.15065 49.638304 Z M -8.15065 49.638304 " stroke="#000001" stroke-width="2" stroke-opacity="1" stroke-miterlimit="4"/><path fill="#000001" d="M 284.738281 82.746094 C 284.738281 83.089844 284.460938 83.363281 284.117188 83.363281 C 283.777344 83.363281 283.5 83.089844 283.5 82.746094 C 283.5 82.40625 283.777344 82.128906 284.117188 82.128906 C 284.460938 82.128906 284.738281 82.40625 284.738281 82.746094 Z M 284.738281 82.746094 " fill-opacity="1" fill-rule="nonzero"/><path stroke-linecap="round" transform="matrix(0.352691, 0, 0, 0.352691, 283.270479, 80.844282)" fill="none" stroke-linejoin="round" d="M -6.260379 3.354388 C -6.260379 3.354388 -3.557942 -0.499908 0.462486 -1.928655 C 4.460764 -3.346327 6.26608 -2.847926 6.26608 -2.847926 " stroke="#000001" stroke-width="2" stroke-opacity="1" stroke-miterlimit="4"/><path stroke-linecap="round" transform="matrix(0.352691, 0, 0, 0.352691, 277.517394, 99.872306)" fill="none" stroke-linejoin="round" d="M 5.676747 2.488565 C 5.676747 2.488565 -5.675703 -2.484362 -5.675703 -2.484362 " stroke="#000001" stroke-width="2" stroke-opacity="1" stroke-miterlimit="4"/><path stroke-linecap="round" transform="matrix(0.352691, 0, 0, 0.352691, 270.784504, 86.627696)" fill="none" stroke-linejoin="round" d="M -2.390472 -2.366737 C -2.390472 -2.366737 -0.0867552 -2.078773 1.031876 -0.716479 C 2.150508 0.63474 2.383095 2.373603 2.383095 2.373603 " stroke="#000001" stroke-width="2" stroke-opacity="1" stroke-miterlimit="4"/><path stroke-linecap="round" transform="matrix(0.352691, 0, 0, 0.352691, 273.549601, 103.703941)" fill-opacity="1" fill="#1fba7e" fill-rule="nonzero" stroke-linejoin="round" d="M -24.761609 -6.891314 C -24.761609 -6.891314 -23.288559 -11.232933 -19.046619 -11.310462 C -14.815755 -11.387991 -6.664142 -4.687277 3.492147 -4.133499 C 13.648436 -3.568645 20.227319 -4.687277 22.243071 -2.571845 C 24.247748 -0.445337 24.768299 3.785527 24.768299 3.785527 C 24.768299 3.785527 16.771744 11.383362 -1.536158 8.59232 C -19.832984 5.801279 -24.761609 -6.891314 -24.761609 -6.891314 Z M -24.761609 -6.891314 " stroke="#000001" stroke-width="2" stroke-opacity="1" stroke-miterlimit="4"/><path stroke-linecap="round" transform="matrix(0.352691, 0, 0, 0.352691, 269.92678, 91.343532)" fill-opacity="1" fill="#000001" fill-rule="nonzero" stroke-linejoin="round" d="M 37.432563 -42.374477 C 37.432563 -42.374477 32.946961 -17.565221 20.331898 -15.593771 C 7.705758 -13.633397 5.889366 -19.802485 5.889366 -19.802485 C 5.889366 -19.802485 1.337311 -23.313437 -2.738496 -18.993969 C -6.803226 -14.685575 -7.035813 -6.279225 -2.539136 -4.097339 C 1.957542 -1.926529 5.003321 -5.548238 5.003321 -5.548238 C 5.003321 -5.548238 12.412872 58.922602 -16.826609 66.708721 C -46.055014 74.483764 -55.314183 43.151003 -50.895034 24.643741 C -46.475885 6.136479 -35.333871 -4.59574 -35.333871 -4.59574 C -35.333871 -4.59574 -42.189643 -12.160348 -38.966655 -24.365616 C -35.754742 -36.559808 -24.014648 -53.992741 -6.86968 -64.237634 C 10.275288 -74.482528 29.159119 -64.813564 29.159119 -64.813564 C 29.159119 -64.813564 49.848267 -67.759663 52.583931 -57.658751 C 55.308518 -47.568915 37.432563 -42.374477 37.432563 -42.374477 Z M 37.432563 -42.374477 " stroke="#000001" stroke-width="2" stroke-opacity="1" stroke-miterlimit="4"/><path stroke-linecap="round" transform="matrix(0.352691, 0, 0, 0.352691, 250.94636, 138.630927)" fill-opacity="1" fill="#ffffff" fill-rule="nonzero" stroke-linejoin="round" d="M -23.483159 11.789741 C -23.483159 11.789741 -17.823547 -3.284097 -11.421873 -5.388453 C -5.009124 -7.481734 -3.259185 -5.543511 -3.259185 -5.543511 C -3.259185 -5.543511 13.52029 -27.229459 18.504292 -25.435218 C 23.488294 -23.629902 8.148643 -8.434233 8.148643 -8.434233 C 8.148643 -8.434233 11.305178 -7.514961 11.54884 -5.133715 C 11.792502 -2.763545 11.116893 -0.969305 11.116893 -0.969305 C 11.116893 -0.969305 14.373108 -0.0500331 14.051917 2.38659 C 13.71965 4.823214 12.490263 6.861117 12.490263 6.861117 C 12.490263 6.861117 15.403135 7.237686 14.262352 11.003377 C 13.110494 14.769067 13.52029 15.976303 11.415933 17.050633 C 9.322652 18.136038 7.074313 15.865548 7.074313 15.865548 C 7.074313 15.865548 3.807023 21.480857 -1.055148 23.707045 C -5.917319 25.922157 -9.239988 27.229073 -9.239988 27.229073 C -9.239988 27.229073 -23.483159 11.789741 -23.483159 11.789741 Z M -23.483159 11.789741 " stroke="#000001" stroke-width="2" stroke-opacity="1" stroke-miterlimit="4"/><path stroke-linecap="round" transform="matrix(0.352691, 0, 0, 0.352691, 253.360892, 138.841131)" fill="none" stroke-linejoin="round" d="M 4.270866 -1.565305 C 4.270866 -1.565305 2.332643 4.670236 -0.967874 4.083231 C -4.268392 3.507302 -1.510577 -4.666462 -1.510577 -4.666462 " stroke="#000001" stroke-width="2" stroke-opacity="1" stroke-miterlimit="4"/><path stroke-linecap="round" transform="matrix(0.352691, 0, 0, 0.352691, 254.173119, 141.616102)" fill="none" stroke-linejoin="round" d="M 3.341292 -1.60288 C 3.341292 -1.60288 1.535976 1.930224 -0.900647 2.173886 C -3.337271 2.428624 -2.705964 -2.422471 -2.705964 -2.422471 " stroke="#000001" stroke-width="2" stroke-opacity="1" stroke-miterlimit="4"/><path stroke-linecap="round" transform="matrix(0.352691, 0, 0, 0.352691, 249.097201, 140.105879)" fill="none" stroke-linejoin="round" d="M 1.983816 -9.725504 C 1.983816 -9.725504 6.757383 -1.540665 4.996369 1.21715 C 3.235355 3.98604 -3.188471 -2.969412 -3.188471 -2.969412 C -3.188471 -2.969412 -1.604665 -1.308078 -1.925857 2.457613 C -2.247048 6.234379 -6.754801 9.72318 -6.754801 9.72318 " stroke="#000001" stroke-width="2" stroke-opacity="1" stroke-miterlimit="4"/><path stroke-linecap="round" transform="matrix(0.352691, 0, 0, 0.352691, 216.434132, 250.558077)" fill-opacity="1" fill="#ffffff" fill-rule="nonzero" stroke-linejoin="round" d="M 20.543638 -58.46642 C 29.946789 -30.533856 23.855231 84.208954 23.855231 84.208954 C 23.855231 84.208954 -5.904801 86.390839 -5.904801 86.390839 C -5.904801 86.390839 -29.949843 -6.289453 -22.983316 -33.291671 C -16.027864 -60.282812 11.140487 -86.398985 20.543638 -58.46642 Z M 20.543638 -58.46642 " stroke="#000001" stroke-width="2" stroke-opacity="1" stroke-miterlimit="4"/><path stroke-linecap="round" transform="matrix(0.352691, 0, 0, 0.352691, 229.583873, 288.147517)" fill-opacity="1" fill="#000001" fill-rule="nonzero" stroke-linejoin="round" d="M -43.188833 -20.188138 C -43.188833 -20.188138 -39.744334 22.364166 -39.744334 22.364166 C -39.744334 22.364166 -22.08989 21.489197 -22.08989 21.489197 C -22.08989 21.489197 -18.745071 14.899238 -18.745071 14.899238 C -18.745071 14.899238 -15.47778 21.533499 -15.47778 21.533499 C -15.47778 21.533499 43.189465 21.533499 43.189465 21.533499 C 43.189465 21.533499 43.189465 11.200001 31.183557 5.817279 C 19.17765 0.445632 -0.791586 0.977259 -7.47015 -6.487669 C -14.148713 -13.952597 -13.428801 -22.370024 -13.428801 -22.370024 C -13.428801 -22.370024 -43.188833 -20.188138 -43.188833 -20.188138 Z M -43.188833 -20.188138 " stroke="#000001" stroke-width="2" stroke-opacity="1" stroke-miterlimit="4"/><path stroke-linecap="round" transform="matrix(0.352691, 0, 0, 0.352691, 207.782635, 251.314257)" fill-opacity="1" fill="#ffffff" fill-rule="nonzero" stroke-linejoin="round" d="M 59.283551 -22.333312 C 40.277889 0.205454 -60.963812 54.53108 -60.963812 54.53108 C -60.963812 54.53108 -78.274914 30.231299 -78.274914 30.231299 C -78.274914 30.231299 -11.522509 -38.415026 15.169592 -46.478035 C 41.861694 -54.529967 78.278138 -44.861003 59.283551 -22.333312 Z M 59.283551 -22.333312 " stroke="#000001" stroke-width="2" stroke-opacity="1" stroke-miterlimit="4"/><path stroke-linecap="round" transform="matrix(0.352691, 0, 0, 0.352691, 177.248056, 278.813913)" fill-opacity="1" fill="#000001" fill-rule="nonzero" stroke-linejoin="round" d="M 8.301106 -47.739674 C 8.301106 -47.739674 -26.28787 -22.719982 -26.28787 -22.719982 C -26.28787 -22.719982 -16.375243 -8.078091 -16.375243 -8.078091 C -16.375243 -8.078091 -9.009995 -8.642944 -9.009995 -8.642944 C -9.009995 -8.642944 -12.975046 -2.407404 -12.975046 -2.407404 C -12.975046 -2.407404 17.460595 47.742736 17.460595 47.742736 C 17.460595 47.742736 26.287817 42.382164 24.65971 29.335154 C 23.031602 16.277067 12.210779 -0.513483 15.123652 -10.093843 C 18.036524 -19.674203 25.612208 -23.439894 25.612208 -23.439894 C 25.612208 -23.439894 8.301106 -47.739674 8.301106 -47.739674 Z M 8.301106 -47.739674 " stroke="#000001" stroke-width="2" stroke-opacity="1" stroke-miterlimit="4"/><path stroke-linecap="round" transform="matrix(0.352691, 0, 0, 0.352691, 205.928889, 220.087732)" fill-opacity="1" fill="#1fba7e" fill-rule="nonzero" stroke-linejoin="round" d="M -57.557426 -105.344747 C -57.557426 -105.344747 61.848195 -105.344747 61.848195 -105.344747 C 61.848195 -105.344747 80.953537 -48.892614 83.777805 -1.777178 C 86.602073 45.327182 83.777805 105.33457 83.777805 105.33457 C 83.777805 105.33457 -86.608622 105.33457 -86.608622 105.33457 C -86.608622 105.33457 -69.242142 44.662648 -68.212115 -23.097633 C -67.182088 -90.857914 -57.557426 -105.344747 -57.557426 -105.344747 Z M -57.557426 -105.344747 " stroke="#000001" stroke-width="2" stroke-opacity="1" stroke-miterlimit="4"/><path stroke-linecap="round" transform="matrix(0.352691, 0, 0, 0.352691, 204.619699, 224.849733)" fill="none" stroke-linejoin="round" d="M 41.648064 -67.998755 C 41.648064 -67.998755 37.483653 -11.502319 15.587269 20.472825 C -6.309115 52.436893 -41.640154 67.998056 -41.640154 67.998056 " stroke="#000001" stroke-width="2" stroke-opacity="1" stroke-miterlimit="4"/><path stroke-linecap="round" transform="matrix(0.352691, 0, 0, 0.352691, 214.941193, 227.547829)" fill="none" stroke-linejoin="round" d="M 3.611237 -27.126754 C 3.611237 -27.126754 -3.610029 27.121343 -3.610029 27.121343 " stroke="#000001" stroke-width="2" stroke-opacity="1" stroke-miterlimit="4"/><path stroke-linecap="round" transform="matrix(0.352691, 0, 0, 0.352691, 172.052916, 125.913945)" fill-opacity="1" fill="#000001" fill-rule="nonzero" stroke-linejoin="round" d="M 23.795328 -6.312737 C 23.795328 -6.312737 11.911251 -11.706535 -3.12936 -6.312737 C -18.169972 -0.918939 -23.796357 11.7072 -23.796357 11.7072 C -23.796357 11.7072 23.795328 -6.312737 23.795328 -6.312737 Z M 23.795328 -6.312737 " stroke="#000001" stroke-width="2" stroke-opacity="1" stroke-miterlimit="4"/><g clip-path="url(#b3626b6052)"><path fill="#ffffff" d="M 175.742188 127.617188 C 175.742188 127.617188 174.550781 123.949219 174.550781 123.949219 C 174.550781 123.949219 174.851562 121.863281 174.550781 120.078125 C 174.253906 118.292969 173.253906 115.414062 173.082031 114.523438 C 172.914062 113.628906 172.171875 113.132812 171.476562 113.628906 C 170.78125 114.125 171.476562 117.695312 171.476562 117.695312 C 171.476562 117.695312 169.839844 116.058594 168.746094 113.976562 C 167.65625 111.890625 166.515625 108.382812 165.574219 108.324219 C 164.628906 108.269531 164.730469 110.253906 164.730469 110.253906 C 164.730469 110.253906 163.441406 107.625 162.644531 107.675781 C 161.851562 107.726562 162.644531 111.496094 162.644531 111.496094 C 162.644531 111.496094 160.871094 109.410156 160.046875 109.660156 C 159.222656 109.90625 162.105469 114.035156 162.105469 114.035156 C 162.105469 114.035156 160.265625 113.378906 159.769531 114.023438 C 159.273438 114.671875 162 117.449219 162.644531 119.632812 C 163.292969 121.816406 164.730469 123.648438 165.921875 124.742188 C 167.109375 125.832031 167.726562 126.179688 167.726562 126.179688 C 167.726562 126.179688 167.726562 130.59375 167.726562 130.59375 C 167.726562 130.59375 175.742188 127.617188 175.742188 127.617188 Z M 175.742188 127.617188 " fill-opacity="1" fill-rule="nonzero"/></g><g clip-path="url(#c240a66478)"><path stroke-linecap="round" transform="matrix(0.352691, 0, 0, 0.352691, 167.48275, 119.110539)" fill="none" stroke-linejoin="round" d="M 23.418344 24.119272 C 23.418344 24.119272 20.040297 13.719321 20.040297 13.719321 C 20.040297 13.719321 20.893116 7.804971 20.040297 2.74344 C 19.198555 -2.318091 16.363211 -10.48078 15.875887 -13.006008 C 15.399638 -15.542311 13.295281 -16.948907 11.323831 -15.542311 C 9.352381 -14.135715 11.323831 -4.012652 11.323831 -4.012652 C 11.323831 -4.012652 6.683171 -8.653312 3.582014 -14.556586 C 0.491933 -20.470936 -2.742131 -30.416789 -5.411341 -30.582923 C -8.091627 -30.73798 -7.803662 -25.111596 -7.803662 -25.111596 C -7.803662 -25.111596 -11.458597 -32.565448 -13.718012 -32.421466 C -15.966351 -32.277483 -13.718012 -21.589567 -13.718012 -21.589567 C -13.718012 -21.589567 -18.746316 -27.503917 -21.08326 -26.795081 C -23.420203 -26.09732 -15.246439 -14.390453 -15.246439 -14.390453 C -15.246439 -14.390453 -20.463028 -16.251147 -21.869625 -14.423679 C -23.276221 -12.585136 -15.545479 -4.710413 -13.718012 1.480826 C -11.879469 7.672064 -7.803662 12.866502 -4.425616 15.967659 C -1.058646 19.057741 0.691293 20.043466 0.691293 20.043466 C 0.691293 20.043466 0.691293 32.558849 0.691293 32.558849 C 0.691293 32.558849 23.418344 24.119272 23.418344 24.119272 Z M 23.418344 24.119272 " stroke="#000001" stroke-width="2" stroke-opacity="1" stroke-miterlimit="4"/></g><path stroke-linecap="round" transform="matrix(0.352691, 0, 0, 0.352691, 166.227173, 113.114434)" fill="none" stroke-linejoin="round" d="M -4.243671 -8.11058 C -4.243671 -8.11058 4.251284 8.104041 4.251284 8.104041 " stroke="#000001" stroke-width="2" stroke-opacity="1" stroke-miterlimit="4"/><path stroke-linecap="round" transform="matrix(0.352691, 0, 0, 0.352691, 164.232348, 113.912233)" fill="none" stroke-linejoin="round" d="M -4.502007 -6.850584 C -4.502007 -6.850584 4.502424 6.849885 4.502424 6.849885 " stroke="#000001" stroke-width="2" stroke-opacity="1" stroke-miterlimit="4"/><path stroke-linecap="round" transform="matrix(0.352691, 0, 0, 0.352691, 163.230704, 115.690493)" fill="none" stroke-linejoin="round" d="M -3.190428 -4.693449 C -3.190428 -4.693449 3.189095 4.687551 3.189095 4.687551 " stroke="#000001" stroke-width="2" stroke-opacity="1" stroke-miterlimit="4"/><path stroke-linecap="round" transform="matrix(0.352691, 0, 0, 0.352691, 170.07397, 121.189999)" fill="none" stroke-linejoin="round" d="M 0.742769 -5.821756 C 0.742769 -5.821756 -0.752432 5.829734 -0.752432 5.829734 " stroke="#000001" stroke-width="2" stroke-opacity="1" stroke-miterlimit="4"/><path stroke-linecap="round" transform="matrix(0.352691, 0, 0, 0.352691, 207.357991, 148.892112)" fill-opacity="1" fill="#fdbd00" fill-rule="nonzero" stroke-linejoin="round" d="M 60.232825 97.671154 C 60.232825 97.671154 44.527679 103.053876 -1.18116 103.330765 C -46.878924 103.61873 -66.515893 97.671154 -66.515893 97.671154 C -66.515893 97.671154 -59.903783 36.855249 -59.903783 36.855249 C -59.903783 36.855249 -78.99805 57.433641 -99.122344 36.855249 C -119.246638 16.265782 -123.898373 -53.443798 -123.898373 -53.443798 C -123.898373 -53.443798 -76.306689 -71.463735 -76.306689 -71.463735 C -76.306689 -71.463735 -72.120127 -21.845223 -72.120127 -21.845223 C -72.120127 -21.845223 -60.069917 -94.367995 -32.237032 -98.986504 C -4.404148 -103.616088 37.660832 -103.283821 52.812199 -95.242964 C 67.952491 -87.213183 67.952491 2.388104 67.952491 2.388104 C 67.952491 2.388104 92.207969 -29.863929 92.207969 -29.863929 C 92.207969 -29.863929 123.895148 5.46711 123.895148 5.46711 C 123.895148 5.46711 99.772577 46.557441 82.395022 53.778706 C 65.006391 60.988896 57.995561 52.582546 57.995561 52.582546 C 57.995561 52.582546 60.232825 97.671154 60.232825 97.671154 Z M 60.232825 97.671154 " stroke="#000001" stroke-width="2" stroke-opacity="1" stroke-miterlimit="4"/><path stroke-linecap="round" transform="matrix(0.352691, 0, 0, 0.352691, 192.920578, 149.389411)" fill-opacity="1" fill="#000001" fill-rule="nonzero" stroke-linejoin="round" d="M 21.180149 -55.861688 C 21.180149 -55.861688 14.667719 -28.26139 6.250293 -5.966286 C -2.156057 16.328818 -18.968759 35.445235 -18.968759 35.445235 C -18.968759 35.445235 -21.183871 55.857494 -21.183871 55.857494 C -21.183871 55.857494 -12.888276 41.990892 -3.629107 24.524733 C 5.618986 7.069649 6.250293 -5.966286 6.250293 -5.966286 " stroke="#000001" stroke-width="2" stroke-opacity="1" stroke-miterlimit="4"/><path stroke-linecap="round" transform="matrix(0.352691, 0, 0, 0.352691, 226.600805, 148.089392)" fill="none" stroke-linejoin="round" d="M 3.435571 54.858535 C 3.435571 54.858535 -3.431276 -54.85597 -3.431276 -54.85597 " stroke="#000001" stroke-width="2" stroke-opacity="1" stroke-miterlimit="4"/><path stroke-linecap="round" transform="matrix(0.352691, 0, 0, 0.352691, 216.783659, 98.367019)" fill-opacity="1" fill="#ffffff" fill-rule="nonzero" stroke-linejoin="round" d="M -20.175426 49.120591 C -7.172717 53.273926 2.141829 53.517588 2.141829 53.517588 C 2.141829 53.517588 2.795287 36.594132 2.795287 36.594132 C 2.795287 36.594132 14.003755 36.594132 20.737696 33.227161 C 27.460561 29.860191 28.390908 21.132649 28.390908 21.132649 C 28.390908 21.132649 23.085715 22.871512 19.264646 18.928612 C 15.443578 14.974637 19.364326 9.038136 19.364326 9.038136 C 19.364326 9.038136 30.78323 12.637694 30.78323 12.637694 C 30.78323 12.637694 32.101221 3.876925 32.101221 3.876925 C 32.101221 3.876925 41.116728 1.772569 41.537599 -0.841264 C 41.95847 -3.466172 34.715054 -6.39012 32.942964 -15.073359 C 31.170874 -23.767675 33.120173 -30.080744 23.351528 -39.760784 C 13.593959 -49.429749 -7.560362 -53.516631 -22.047195 -44.323915 C -36.545105 -35.1312 -41.961054 -19.492508 -40.177888 -3.92027 C -38.383648 11.651969 -30.398168 23.237005 -30.398168 23.237005 C -30.398168 23.237005 -37.541905 41.866099 -37.541905 41.866099 C -37.541905 41.866099 -33.178134 44.967256 -20.175426 49.120591 Z M -20.175426 49.120591 " stroke="#000001" stroke-width="2" stroke-opacity="1" stroke-miterlimit="4"/><path stroke-linecap="round" transform="matrix(0.352691, 0, 0, 0.352691, 214.68338, 111.810181)" fill-opacity="1" fill="#000001" fill-rule="nonzero" stroke-linejoin="round" d="M 8.750298 -1.521852 C 8.750298 -1.521852 -8.749088 -9.673464 -8.749088 -9.673464 C -8.749088 -9.673464 8.318351 9.67554 8.318351 9.67554 C 8.318351 9.67554 8.750298 -1.521852 8.750298 -1.521852 Z M 8.750298 -1.521852 " stroke="#000001" stroke-width="2" stroke-opacity="1" stroke-miterlimit="4"/><path fill="#000001" d="M 225.625 94.257812 C 225.574219 94.59375 225.257812 94.828125 224.921875 94.777344 C 224.585938 94.726562 224.351562 94.410156 224.402344 94.074219 C 224.453125 93.734375 224.769531 93.503906 225.109375 93.554688 C 225.445312 93.605469 225.675781 93.921875 225.625 94.257812 Z M 225.625 94.257812 " fill-opacity="1" fill-rule="nonzero"/><path stroke-linecap="round" transform="matrix(0.352691, 0, 0, 0.352691, 224.681801, 91.978022)" fill="none" stroke-linejoin="round" d="M -6.130778 1.280626 C -6.130778 1.280626 -2.675203 -1.277829 1.068336 -1.10062 C 4.811876 -0.934486 6.129867 0.206296 6.129867 0.206296 " stroke="#000001" stroke-width="2" stroke-opacity="1" stroke-miterlimit="4"/><path stroke-linecap="round" transform="matrix(0.352691, 0, 0, 0.352691, 214.489744, 97.776621)" fill="none" stroke-linejoin="round" d="M -2.385392 -2.368121 C -2.385392 -2.368121 -0.092751 -2.080156 1.025881 -0.717862 C 2.144512 0.633356 2.388175 2.372219 2.388175 2.372219 " stroke="#000001" stroke-width="2" stroke-opacity="1" stroke-miterlimit="4"/><path stroke-linecap="round" transform="matrix(0.352691, 0, 0, 0.352691, 210.635901, 102.768961)" fill-opacity="1" fill="#1fba7e" fill-rule="nonzero" stroke-linejoin="round" d="M 21.799023 -35.096837 C 21.799023 -35.096837 35.532718 -35.096837 35.532718 -35.096837 C 35.532718 -35.096837 38.899689 -45.718299 38.899689 -45.718299 C 38.899689 -45.718299 45.212758 -35.096837 45.212758 -35.096837 C 45.212758 -35.096837 56.144337 -35.096837 56.144337 -35.096837 C 56.144337 -35.096837 57.562009 -44.721499 50.041703 -58.521648 C 42.521397 -72.321796 19.517457 -84.360931 -6.31075 -71.059183 C -32.150034 -57.746358 -34.010728 -32.682364 -37.931476 -5.724449 C -41.863301 21.22239 -57.568446 56.907847 -57.568446 56.907847 C -57.568446 56.907847 -54.478364 78.759928 -36.535956 81.562045 C -18.582472 84.364162 -4.007034 76.323305 -4.007034 76.323305 C -4.007034 76.323305 6.160331 46.242082 9.737737 28.786998 C 13.315143 11.331914 13.038254 -6.045641 13.038254 -6.045641 C 13.038254 -6.045641 7.566927 -3.863755 4.089201 -8.072468 C 0.622551 -12.270106 5.141379 -21.83939 9.671284 -21.628955 C 14.190113 -21.418519 15.873598 -19.004047 15.873598 -19.004047 C 15.873598 -19.004047 21.799023 -35.096837 21.799023 -35.096837 Z M 21.799023 -35.096837 " stroke="#000001" stroke-width="2" stroke-opacity="1" stroke-miterlimit="4"/><path stroke-linecap="round" transform="matrix(0.352691, 0, 0, 0.352691, 427.39198, 275.638661)" fill-opacity="1" fill="#ffffff" fill-rule="nonzero" stroke-linejoin="round" d="M -27.172192 -23.131277 C -27.172192 -23.131277 -16.628258 23.131341 -16.628258 23.131341 C -16.628258 23.131341 27.16451 23.131341 27.16451 23.131341 C 27.16451 23.131341 17.628452 -22.30061 17.628452 -22.30061 C 17.628452 -22.30061 -27.172192 -23.131277 -27.172192 -23.131277 Z M -27.172192 -23.131277 " stroke="#000001" stroke-width="2" stroke-opacity="1" stroke-miterlimit="4"/><path stroke-linecap="round" transform="matrix(0.352691, 0, 0, 0.352691, 426.744124, 272.555429)" fill-opacity="1" fill="#000001" fill-rule="nonzero" stroke-linejoin="round" d="M -20.628184 6.266665 C -20.628184 6.266665 25.335393 14.396127 25.335393 14.396127 C 25.335393 14.396127 19.465346 -13.558589 19.465346 -13.558589 C 19.465346 -13.558589 -25.335297 -14.389256 -25.335297 -14.389256 C -25.335297 -14.389256 -20.628184 6.266665 -20.628184 6.266665 Z M -20.628184 6.266665 " stroke="#000001" stroke-width="2" stroke-opacity="1" stroke-miterlimit="4"/><path stroke-linecap="round" transform="matrix(0.352691, 0, 0, 0.352691, 421.57294, 288.393697)" fill-opacity="1" fill="#d653b3" fill-rule="nonzero" stroke-linejoin="round" d="M 48.425977 -13.03357 C 45.32482 -18.870391 40.916747 -20.0444 26.551744 -20.0444 C 12.197818 -20.0444 2.528853 -20.576027 -8.98973 -13.03357 C -20.508313 -5.480038 -39.10418 -5.103469 -47.455153 1.309281 C -55.79505 7.710955 -49.969305 20.580757 -49.969305 20.580757 C -49.969305 20.580757 22.763903 20.580757 22.763903 20.580757 C 22.763903 20.580757 28.800083 11.886441 28.800083 11.886441 C 28.800083 11.886441 36.597278 20.580757 36.597278 20.580757 C 36.597278 20.580757 55.791225 20.580757 55.791225 20.580757 C 55.791225 20.580757 51.53821 -7.185674 48.425977 -13.03357 Z M 48.425977 -13.03357 " stroke="#000001" stroke-width="2" stroke-opacity="1" stroke-miterlimit="4"/><path stroke-linecap="round" transform="matrix(0.352691, 0, 0, 0.352691, 411.195341, 225.711736)" fill-opacity="1" fill="#d653b3" fill-rule="nonzero" stroke-linejoin="round" d="M -71.116257 -121.634072 C -71.116257 -121.634072 -93.068018 135.562601 -93.068018 135.562601 C -93.068018 135.562601 -15.173599 135.562601 -15.173599 135.562601 C -15.173599 135.562601 -8.450734 85.656124 -8.450734 85.656124 C -8.450734 85.656124 1.650178 135.562601 1.650178 135.562601 C 1.650178 135.562601 93.067857 135.562601 93.067857 135.562601 C 93.067857 135.562601 79.046197 58.177657 71.193624 18.914794 C 63.341051 -20.348069 66.143168 -47.261681 65.024537 -75.305001 C 63.905905 -103.348321 56.60711 -135.556052 56.60711 -135.556052 C 56.60711 -135.556052 -71.116257 -121.634072 -71.116257 -121.634072 Z M -71.116257 -121.634072 " stroke="#000001" stroke-width="2" stroke-opacity="1" stroke-miterlimit="4"/><path stroke-linecap="round" transform="matrix(0.352691, 0, 0, 0.352691, 406.633277, 227.63566)" fill="none" stroke-linejoin="round" d="M 4.484284 80.201139 C 4.484284 80.201139 0.563536 15.287277 -1.961692 -20.054838 C -4.48692 -55.385877 -2.404715 -80.206208 -2.404715 -80.206208 " stroke="#000001" stroke-width="2" stroke-opacity="1" stroke-miterlimit="4"/><path stroke-linecap="round" transform="matrix(0.352691, 0, 0, 0.352691, 405.872909, 199.11284)" fill="none" stroke-linejoin="round" d="M -4.645808 12.771372 C -4.645808 12.771372 4.646588 -12.768871 4.646588 -12.768871 " stroke="#000001" stroke-width="2" stroke-opacity="1" stroke-miterlimit="4"/><path stroke-linecap="round" transform="matrix(0.352691, 0, 0, 0.352691, 433.808835, 227.741101)" fill="none" stroke-linejoin="round" d="M 1.904312 -27.7412 C 1.904312 -27.7412 -1.894605 27.74736 -1.894605 27.74736 " stroke="#000001" stroke-width="2" stroke-opacity="1" stroke-miterlimit="4"/><path stroke-linecap="round" transform="matrix(0.352691, 0, 0, 0.352691, 351.580356, 134.876533)" fill-opacity="1" fill="#ffffff" fill-rule="nonzero" stroke-linejoin="round" d="M 29.532195 -1.122979 C 29.532195 -1.122979 20.549915 -10.958077 10.493306 -14.66839 C 0.425621 -18.389779 -26.089271 -17.73632 -27.805983 -13.67159 C -29.533771 -9.606859 -8.634188 -10.216015 -8.634188 -10.216015 C -8.634188 -10.216015 -10.74962 -8.687587 -10.993282 -6.815817 C -11.236944 -4.944048 -9.87465 -3.072278 -9.87465 -3.072278 C -9.87465 -3.072278 -12.255896 -2.651407 -12.322349 -0.535975 C -12.377727 1.579458 -10.716393 3.29617 -10.716393 3.29617 C -10.716393 3.29617 -12.322349 4.237592 -12.377727 5.987531 C -12.444181 7.748545 -9.17689 10.650342 -6.884249 10.70572 C -4.580532 10.772173 -3.251465 8.889328 -3.251465 8.889328 C -3.251465 8.889328 -1.922398 11.314876 2.064804 13.662894 C 6.052006 16.021989 14.32545 18.392159 14.32545 18.392159 C 14.32545 18.392159 29.532195 -1.122979 29.532195 -1.122979 Z M 29.532195 -1.122979 " stroke="#000001" stroke-width="2" stroke-opacity="1" stroke-miterlimit="4"/><path stroke-linecap="round" transform="matrix(0.352691, 0, 0, 0.352691, 354.257623, 134.565457)" fill="none" stroke-linejoin="round" d="M -2.668673 -9.123572 C -2.668673 -9.123572 -7.619449 -9.012816 -8.727005 -5.280352 C -9.834561 -1.547888 -11.617726 3.967741 -8.727005 4.864862 C -5.836283 5.761982 -4.363234 -0.0305363 -4.363234 -0.0305363 C -4.363234 -0.0305363 -3.632247 5.440791 0.476786 7.279334 C 4.574744 9.117877 11.6188 3.44719 11.6188 3.44719 " stroke="#000001" stroke-width="2" stroke-opacity="1" stroke-miterlimit="4"/><path stroke-linecap="round" transform="matrix(0.352691, 0, 0, 0.352691, 349.363344, 134.486812)" fill="none" stroke-linejoin="round" d="M -3.58866 -1.967283 C -3.58866 -1.967283 -2.458953 -0.139816 -0.354597 0.912362 C 1.74976 1.964541 3.588303 1.931314 3.588303 1.931314 " stroke="#000001" stroke-width="2" stroke-opacity="1" stroke-miterlimit="4"/><path stroke-linecap="round" transform="matrix(0.352691, 0, 0, 0.352691, 349.342543, 136.629042)" fill="none" stroke-linejoin="round" d="M -4.371426 -1.672795 C -4.371426 -1.672795 -2.78762 0.420486 0.335688 1.040718 C 3.458996 1.672025 4.378268 -1.48451 4.378268 -1.48451 " stroke="#000001" stroke-width="2" stroke-opacity="1" stroke-miterlimit="4"/><path stroke-linecap="round" transform="matrix(0.352691, 0, 0, 0.352691, 159.086235, -20.913765)" fill="none" stroke-linejoin="round" d="M 537.152778 431.503004 C 537.152778 431.503004 545.249013 431.503004 545.249013 431.503004 " stroke="#000001" stroke-width="2" stroke-opacity="1" stroke-miterlimit="4"/><path stroke-linecap="round" transform="matrix(0.352691, 0, 0, 0.352691, 396.90045, 146.3993)" fill-opacity="1" fill="#d653b3" fill-rule="nonzero" stroke-linejoin="round" d="M 83.26036 -94.92 C 73.170524 -114.900312 56.269218 -124.93477 23.275122 -125.156281 C -9.730049 -125.366717 -27.229435 -107.424309 -37.939502 -69.036415 C -48.660645 -30.648521 -56.391386 -5.329789 -56.391386 -5.329789 C -56.391386 -5.329789 -95.178 -46.342591 -95.178 -46.342591 C -95.178 -46.342591 -123.22132 -9.029027 -123.22132 -9.029027 C -123.22132 -9.029027 -95.510267 35.793768 -71.110807 53.625421 C -46.711346 71.445998 -33.199162 51.93086 -33.199162 51.93086 C -33.199162 51.93086 -35.934826 113.311618 -35.934826 113.311618 C -35.934826 113.311618 -11.834405 125.361828 32.368158 125.361828 C 76.559645 125.361828 108.091767 107.674157 108.091767 107.674157 C 108.091767 107.674157 98.201291 49.649295 98.201291 49.649295 C 98.201291 49.649295 123.220983 35.273217 118.735381 4.682518 C 114.249779 -25.908181 93.361271 -74.950764 83.26036 -94.92 Z M 83.26036 -94.92 " stroke="#000001" stroke-width="2" stroke-opacity="1" stroke-miterlimit="4"/><path stroke-linecap="round" transform="matrix(0.352691, 0, 0, 0.352691, 396.997775, 122.431822)" fill-opacity="1" fill="#fdbd00" fill-rule="nonzero" stroke-linejoin="round" d="M -8.75446 56.091665 C -8.75446 56.091665 9.387309 -56.092691 9.387309 -56.092691 C 9.387309 -56.092691 -9.385767 -52.171942 -9.385767 -52.171942 C -9.385767 -52.171942 -8.75446 56.091665 -8.75446 56.091665 Z M -8.75446 56.091665 " stroke="#000001" stroke-width="2" stroke-opacity="1" stroke-miterlimit="4"/><path stroke-linecap="round" transform="matrix(0.352691, 0, 0, 0.352691, 386.114455, 141.202753)" fill="none" stroke-linejoin="round" d="M -2.61716 66.675931 C -2.61716 66.675931 2.610505 -66.673821 2.610505 -66.673821 " stroke="#000001" stroke-width="2" stroke-opacity="1" stroke-miterlimit="4"/><path stroke-linecap="round" transform="matrix(0.352691, 0, 0, 0.352691, 410.263229, 139.200164)" fill-opacity="1" fill="#d653b3" fill-rule="nonzero" stroke-linejoin="round" d="M 14.382871 -85.384179 C 14.382871 -85.384179 -4.40128 -86.225921 -10.570367 -62.391315 C -16.739455 -38.556708 26.444157 22.015534 26.444157 22.015534 C 26.444157 22.015534 -41.581937 44.089127 -41.581937 44.089127 C -41.581937 44.089127 -26.973273 86.231636 -26.973273 86.231636 C -26.973273 86.231636 41.584449 73.328607 41.584449 73.328607 " stroke="#000001" stroke-width="2" stroke-opacity="1" stroke-miterlimit="4"/><path stroke-linecap="round" transform="matrix(0.352691, 0, 0, 0.352691, 389.940451, 160.389832)" fill-opacity="1" fill="#ffffff" fill-rule="nonzero" stroke-linejoin="round" d="M 19.340639 -6.443728 C 19.340639 -6.443728 11.211177 -12.967234 -1.160224 -12.967234 C -13.52055 -12.967234 -24.67364 -4.981754 -21.871523 -0.640135 C -19.069406 3.712561 -5.679053 -2.545131 -5.679053 -2.545131 C -5.679053 -2.545131 0.921981 6.802642 11.432688 9.881648 C 21.954471 12.97173 24.679059 8.940226 24.679059 8.940226 C 24.679059 8.940226 19.340639 -6.443728 19.340639 -6.443728 Z M 19.340639 -6.443728 " stroke="#000001" stroke-width="2" stroke-opacity="1" stroke-miterlimit="4"/><path stroke-linecap="round" transform="matrix(0.352691, 0, 0, 0.352691, 424.5595, 147.829104)" fill="none" stroke-linejoin="round" d="M -14.090683 -2.450476 C -14.090683 -2.450476 14.085544 2.455998 14.085544 2.455998 " stroke="#000001" stroke-width="2" stroke-opacity="1" stroke-miterlimit="4"/><path stroke-linecap="round" transform="matrix(0.352691, 0, 0, 0.352691, 378.372171, 146.038846)" fill="none" stroke-linejoin="round" d="M -3.857349 -4.30778 C -3.857349 -4.30778 3.862317 4.309007 3.862317 4.309007 " stroke="#000001" stroke-width="2" stroke-opacity="1" stroke-miterlimit="4"/><path stroke-linecap="round" transform="matrix(0.352691, 0, 0, 0.352691, 394.425978, 90.790159)" fill-opacity="1" fill="#ffffff" fill-rule="nonzero" stroke-linejoin="round" d="M 17.598507 48.363864 C 4.651177 52.694409 -1.462533 49.715083 -1.462533 49.715083 C -1.462533 49.715083 -2.09384 37.543041 -2.09384 37.543041 C -2.09384 37.543041 -10.289755 36.513014 -17.300585 36.202899 C -24.311415 35.881707 -27.490101 25.083036 -27.490101 25.083036 C -27.490101 25.083036 -23.381067 23.477079 -19.615377 19.478802 C -15.849686 15.480524 -16.359162 8.857339 -16.359162 8.857339 C -16.359162 8.857339 -30.402973 13.963173 -30.402973 13.963173 C -30.402973 13.963173 -31.920325 7.594725 -31.920325 7.594725 C -31.920325 7.594725 -39.174817 8.015596 -40.537111 4.759382 C -41.910481 1.503167 -34.589535 -5.009263 -32.939276 -13.725729 C -31.277942 -22.43112 -33.30477 -28.722039 -23.680108 -38.52391 C -14.04437 -48.336857 7.054574 -52.700628 21.663238 -43.696197 C 36.271903 -34.702842 41.909363 -19.130603 40.325558 -3.547289 C 38.741753 12.047101 30.911331 23.742893 30.911331 23.742893 C 30.911331 23.742893 35.507689 35.261476 35.507689 35.261476 C 35.507689 35.261476 30.534762 44.044396 17.598507 48.363864 Z M 17.598507 48.363864 " stroke="#000001" stroke-width="2" stroke-opacity="1" stroke-miterlimit="4"/><path fill="#000001" d="M 385.601562 87.121094 C 385.660156 87.457031 385.976562 87.6875 386.3125 87.628906 C 386.652344 87.574219 386.878906 87.257812 386.824219 86.921875 C 386.765625 86.582031 386.449219 86.355469 386.113281 86.410156 C 385.777344 86.46875 385.546875 86.785156 385.601562 87.121094 Z M 385.601562 87.121094 " fill-opacity="1" fill-rule="nonzero"/><path stroke-linecap="round" transform="matrix(0.352691, 0, 0, 0.352691, 386.75424, 84.953825)" fill="none" stroke-linejoin="round" d="M 6.688693 2.423562 C 6.688693 2.423562 3.388176 -0.932333 -0.809461 -1.674395 C -4.996023 -2.427533 -6.690584 -1.652244 -6.690584 -1.652244 " stroke="#000001" stroke-width="2" stroke-opacity="1" stroke-miterlimit="4"/><path stroke-linecap="round" transform="matrix(0.352691, 0, 0, 0.352691, 399.993555, 88.675423)" fill="none" stroke-linejoin="round" d="M 1.989722 -2.723573 C 1.989722 -2.723573 -0.22539 -2.05904 -1.111435 -0.541688 C -1.99748 0.975664 -1.942102 2.725603 -1.942102 2.725603 " stroke="#000001" stroke-width="2" stroke-opacity="1" stroke-miterlimit="4"/><path stroke-linecap="round" transform="matrix(0.352691, 0, 0, 0.352691, 396.998156, 104.155041)" fill-opacity="1" fill="#000001" fill-rule="nonzero" stroke-linejoin="round" d="M -9.386849 -0.350989 C -9.386849 -0.350989 9.386227 -11.82527 9.386227 -11.82527 C 9.386227 -11.82527 -8.755542 11.821052 -8.755542 11.821052 C -8.755542 11.821052 -9.386849 -0.350989 -9.386849 -0.350989 Z M -9.386849 -0.350989 " stroke="#000001" stroke-width="2" stroke-opacity="1" stroke-miterlimit="4"/><path stroke-linecap="round" transform="matrix(0.352691, 0, 0, 0.352691, 395.037169, 84.192013)" fill-opacity="1" fill="#fdbd00" fill-rule="nonzero" stroke-linejoin="round" d="M -5.399506 1.161215 C -5.399506 1.161215 -7.636769 20.964317 -1.755647 22.647803 C 4.136552 24.331288 10.72651 4.561412 10.72651 4.561412 C 10.72651 4.561412 19.974604 2.833624 20.262568 9.024863 C 20.539457 15.216101 14.946299 20.764957 14.946299 20.764957 C 14.946299 20.764957 14.237463 32.737639 19.697715 34.421124 C 25.169042 36.104609 27.827176 32.737639 27.827176 32.737639 C 27.827176 32.737639 25.202268 41.276896 29.18947 43.458781 C 33.165596 45.640667 47.320163 23.733208 45.913567 5.591439 C 44.518046 -12.550329 33.719375 -27.690621 26.287673 -33.859708 C 18.855972 -40.028796 8.766136 -45.644105 6.938669 -43.816638 C 5.122277 -41.98917 8.478171 -36.528919 8.478171 -36.528919 C 8.478171 -36.528919 -3.018261 -41.98917 -19.144277 -37.924439 C -35.259218 -33.859708 -37.230668 -28.809253 -36.244943 -26.704896 C -35.259218 -24.60054 -31.33847 -24.888504 -31.33847 -24.888504 C -31.33847 -24.888504 -47.320504 -15.629335 -44.795276 -9.60423 C -42.270048 -3.579125 -25.811765 -8.064727 -16.796258 -5.960371 C -7.780752 -3.856014 -5.399506 1.161215 -5.399506 1.161215 Z M -5.399506 1.161215 " stroke="#000001" stroke-width="2" stroke-opacity="1" stroke-miterlimit="4"/><path stroke-linecap="round" transform="matrix(0.352691, 0, 0, 0.352691, 450.617738, 254.885956)" fill-opacity="1" fill="#ffffff" fill-rule="nonzero" stroke-linejoin="round" d="M 11.694232 76.966235 C 11.694232 76.966235 22.913775 -73.971508 22.913775 -73.971508 C 22.913775 -73.971508 -21.765037 -76.961909 -21.765037 -76.961909 C -21.765037 -76.961909 -22.90582 76.966235 -22.90582 76.966235 C -22.90582 76.966235 11.694232 76.966235 11.694232 76.966235 Z M 11.694232 76.966235 " stroke="#000001" stroke-width="2" stroke-opacity="1" stroke-miterlimit="4"/><path stroke-linecap="round" transform="matrix(0.352691, 0, 0, 0.352691, 450.726362, 240.890475)" fill-opacity="1" fill="#000001" fill-rule="nonzero" stroke-linejoin="round" d="M 17.289519 37.280764 C 17.289519 37.280764 -22.604651 33.670131 -22.604651 33.670131 C -22.604651 33.670131 -22.073024 -37.279911 -22.073024 -37.279911 C -22.073024 -37.279911 22.605788 -34.28951 22.605788 -34.28951 C 22.605788 -34.28951 17.289519 37.280764 17.289519 37.280764 Z M 17.289519 37.280764 " stroke="#000001" stroke-width="2" stroke-opacity="1" stroke-miterlimit="4"/><path stroke-linecap="round" transform="matrix(0.352691, 0, 0, 0.352691, 438.218523, 288.841295)" fill-opacity="1" fill="#d653b3" fill-rule="nonzero" stroke-linejoin="round" d="M 12.250214 -19.308817 C 12.250214 -19.308817 -1.627463 -6.882038 -27.367067 -0.447137 C -53.10667 5.99884 -44.644941 19.311664 -44.644941 19.311664 C -44.644941 19.311664 35.409212 19.311664 35.409212 19.311664 C 35.409212 19.311664 38.809409 2.133469 38.809409 2.133469 C 38.809409 2.133469 42.320362 19.311664 42.320362 19.311664 C 42.320362 19.311664 53.107958 19.311664 53.107958 19.311664 C 53.107958 19.311664 46.850266 -19.308817 46.850266 -19.308817 C 46.850266 -19.308817 12.250214 -19.308817 12.250214 -19.308817 Z M 12.250214 -19.308817 " stroke="#000001" stroke-width="2" stroke-opacity="1" stroke-miterlimit="4"/><path stroke-linecap="round" transform="matrix(0.352691, 0, 0, 0.352691, 477.30372, 254.885956)" fill-opacity="1" fill="#ffffff" fill-rule="nonzero" stroke-linejoin="round" d="M -11.693048 76.966235 C -11.693048 76.966235 -22.912591 -73.971508 -22.912591 -73.971508 C -22.912591 -73.971508 21.766221 -76.961909 21.766221 -76.961909 C 21.766221 -76.961909 22.907004 76.966235 22.907004 76.966235 C 22.907004 76.966235 -11.693048 76.966235 -11.693048 76.966235 Z M -11.693048 76.966235 " stroke="#000001" stroke-width="2" stroke-opacity="1" stroke-miterlimit="4"/><path stroke-linecap="round" transform="matrix(0.352691, 0, 0, 0.352691, 477.195456, 240.890475)" fill-opacity="1" fill="#000001" fill-rule="nonzero" stroke-linejoin="round" d="M -17.289357 37.280764 C -17.289357 37.280764 22.604813 33.670131 22.604813 33.670131 C 22.604813 33.670131 22.073186 -37.279911 22.073186 -37.279911 C 22.073186 -37.279911 -22.605626 -34.28951 -22.605626 -34.28951 C -22.605626 -34.28951 -17.289357 37.280764 -17.289357 37.280764 Z M -17.289357 37.280764 " stroke="#000001" stroke-width="2" stroke-opacity="1" stroke-miterlimit="4"/><path stroke-linecap="round" transform="matrix(0.352691, 0, 0, 0.352691, 489.622535, 288.841295)" fill-opacity="1" fill="#d653b3" fill-rule="nonzero" stroke-linejoin="round" d="M -12.021069 -19.308817 C -12.021069 -19.308817 1.845533 -6.882038 27.585136 -0.447137 C 53.335815 5.99884 42.359934 19.311664 42.359934 19.311664 C 42.359934 19.311664 -35.667392 19.311664 -35.667392 19.311664 C -35.667392 19.311664 -38.580264 2.133469 -38.580264 2.133469 C -38.580264 2.133469 -42.545315 19.311664 -42.545315 19.311664 C -42.545315 19.311664 -53.332911 19.311664 -53.332911 19.311664 C -53.332911 19.311664 -46.621121 -19.308817 -46.621121 -19.308817 C -46.621121 -19.308817 -12.021069 -19.308817 -12.021069 -19.308817 Z M -12.021069 -19.308817 " stroke="#000001" stroke-width="2" stroke-opacity="1" stroke-miterlimit="4"/><path stroke-linecap="round" transform="matrix(0.352691, 0, 0, 0.352691, 463.726561, 214.994162)" fill-opacity="1" fill="#d653b3" fill-rule="nonzero" stroke-linejoin="round" d="M 61.801634 -90.902726 C 61.801634 -90.902726 -57.603987 -90.902726 -57.603987 -90.902726 C -57.603987 -90.902726 -69.62097 -52.116113 -72.445238 -5.011753 C -75.269506 42.103683 -76.986218 90.902604 -76.986218 90.902604 C -76.986218 90.902604 74.804342 90.902604 74.804342 90.902604 C 74.804342 90.902604 76.775792 1.74434 76.875472 -38.238435 C 76.986228 -78.210134 61.801634 -90.902726 61.801634 -90.902726 Z M 61.801634 -90.902726 " stroke="#000001" stroke-width="2" stroke-opacity="1" stroke-miterlimit="4"/><path stroke-linecap="round" transform="matrix(0.352691, 0, 0, 0.352691, 459.834577, 218.164845)" fill="none" stroke-linejoin="round" d="M 17.104523 41.243169 C 17.104523 41.243169 -17.107884 -41.247608 -17.107884 -41.247608 " stroke="#000001" stroke-width="2" stroke-opacity="1" stroke-miterlimit="4"/><path stroke-linecap="round" transform="matrix(0.352691, 0, 0, 0.352691, 462.257977, 151.846966)" fill-opacity="1" fill="#d653b3" fill-rule="nonzero" stroke-linejoin="round" d="M -52.299264 91.031992 C -52.299264 91.031992 -63.518807 -71.335729 -51.734411 -80.306933 C -39.96109 -89.278137 24.177483 -99.10216 41.920531 -90.684734 C 59.674655 -82.256232 59.586051 32.984978 61.269536 49.808755 C 62.953021 66.632532 63.517875 94.122074 63.517875 94.122074 C 63.517875 94.122074 25.096755 99.106076 -4.630051 98.718431 C -34.356856 98.319711 -52.299264 91.031992 -52.299264 91.031992 Z M -52.299264 91.031992 " stroke="#000001" stroke-width="2" stroke-opacity="1" stroke-miterlimit="4"/><path stroke-linecap="round" transform="matrix(0.352691, 0, 0, 0.352691, 474.46428, 93.996115)" fill-opacity="1" fill="#d653b3" fill-rule="nonzero" stroke-linejoin="round" d="M 23.858356 -0.0111358 C 23.858356 13.168782 13.181516 23.856698 0.00159851 23.856698 C -2.822669 23.856698 -5.536182 23.369373 -8.039259 22.472253 C -17.265201 19.16066 -23.866235 10.344514 -23.866235 -0.0111358 C -23.866235 -9.037718 -18.826855 -16.912442 -11.417305 -20.955021 C -8.028183 -22.815715 -4.129586 -23.856818 0.00159851 -23.856818 C 13.181516 -23.856818 23.858356 -13.179978 23.858356 -0.0111358 Z M 23.858356 -0.0111358 " stroke="#000001" stroke-width="2" stroke-opacity="1" stroke-miterlimit="4"/><path stroke-linecap="round" transform="matrix(0.352691, 0, 0, 0.352691, 469.654248, 94.262042)" fill-opacity="1" fill="#000001" fill-rule="nonzero" stroke-linejoin="round" d="M 5.598834 21.718258 C -3.627109 18.406665 -10.217067 9.590519 -10.217067 -0.754055 C -10.217067 -9.791713 -5.188763 -17.666436 2.220788 -21.709016 C 2.220788 -21.709016 7.70319 -15.4624 8.965804 -3.124225 C 10.228418 9.21395 5.598834 21.718258 5.598834 21.718258 Z M 5.598834 21.718258 " stroke="#000001" stroke-width="2" stroke-opacity="1" stroke-miterlimit="4"/><path stroke-linecap="round" transform="matrix(0.352691, 0, 0, 0.352691, 454.19477, 105.431065)" fill-opacity="1" fill="#ffffff" fill-rule="nonzero" stroke-linejoin="round" d="M 14.012124 56.902325 C 1.064793 61.232869 -1.637644 48.90577 -1.637644 48.90577 C -1.637644 48.90577 -1.925608 29.002987 -1.925608 29.002987 C -1.925608 29.002987 -6.865308 32.270278 -13.876138 31.949086 C -20.886968 31.627895 -27.14466 14.981327 -27.14466 14.981327 C -27.14466 14.981327 -23.965974 16.033506 -20.886968 14.981327 C -17.796887 13.940225 -16.257384 7.627155 -20.676533 5.866141 C -25.095681 4.116202 -29.105034 8.158782 -29.105034 8.158782 C -29.105034 8.158782 -31.441978 0.339436 -31.441978 0.339436 C -31.441978 0.339436 -39.338853 4.503847 -40.712222 1.247632 C -42.074516 -2.019659 -34.421304 -13.549317 -32.771045 -22.254708 C -31.109711 -30.971174 -33.136538 -37.262093 -23.511876 -47.063964 C -13.876138 -56.876911 7.222805 -61.240682 21.83147 -52.236251 C 36.440134 -43.242896 42.077595 -27.670657 40.49379 -12.076268 C 38.909984 3.518122 31.079563 15.213914 31.079563 15.213914 C 31.079563 15.213914 35.332578 34.452163 35.332578 34.452163 C 35.332578 34.452163 26.959454 52.582856 14.012124 56.902325 Z M 14.012124 56.902325 " stroke="#000001" stroke-width="2" stroke-opacity="1" stroke-miterlimit="4"/><path fill="#000001" d="M 445.429688 98.75 C 445.488281 99.089844 445.804688 99.316406 446.140625 99.261719 C 446.480469 99.203125 446.707031 98.886719 446.652344 98.550781 C 446.59375 98.214844 446.277344 97.984375 445.941406 98.039062 C 445.601562 98.097656 445.375 98.414062 445.429688 98.75 Z M 445.429688 98.75 " fill-opacity="1" fill-rule="nonzero"/><path stroke-linecap="round" transform="matrix(0.352691, 0, 0, 0.352691, 459.821233, 100.304706)" fill="none" stroke-linejoin="round" d="M 1.990991 -2.724642 C 1.990991 -2.724642 -0.224122 -2.060108 -1.110166 -0.542756 C -1.996211 0.974596 -1.940833 2.724534 -1.940833 2.724534 " stroke="#000001" stroke-width="2" stroke-opacity="1" stroke-miterlimit="4"/><path stroke-linecap="round" transform="matrix(0.352691, 0, 0, 0.352691, 456.825793, 115.784302)" fill-opacity="1" fill="#000001" fill-rule="nonzero" stroke-linejoin="round" d="M -9.385465 -0.351996 C -9.385465 -0.351996 9.387611 -11.826277 9.387611 -11.826277 C 9.387611 -11.826277 -8.754158 11.820045 -8.754158 11.820045 C -8.754158 11.820045 -9.385465 -0.351996 -9.385465 -0.351996 Z M -9.385465 -0.351996 " stroke="#000001" stroke-width="2" stroke-opacity="1" stroke-miterlimit="4"/><path stroke-linecap="round" transform="matrix(0.352691, 0, 0, 0.352691, 446.65949, 95.912652)" fill="none" stroke-linejoin="round" d="M -6.377634 1.598881 C -6.377634 1.598881 -4.627696 -1.601956 0.212324 -1.336143 C 5.052344 -1.081405 6.381412 1.598881 6.381412 1.598881 " stroke="#000001" stroke-width="2" stroke-opacity="1" stroke-miterlimit="4"/><path stroke-linecap="round" transform="matrix(0.352691, 0, 0, 0.352691, 456.200473, 97.865851)" fill-opacity="1" fill="#d653b3" fill-rule="nonzero" stroke-linejoin="round" d="M -11.987314 -10.883486 C -11.987314 -10.883486 -3.580964 32.643468 -3.580964 32.643468 C -3.580964 32.643468 3.99472 29.653067 3.99472 29.653067 C 3.99472 29.653067 2.344461 3.625499 8.325264 0.468964 C 14.306067 -2.687571 18.082833 3.835934 17.241091 8.255083 C 16.410424 12.674232 12.257088 15.819691 12.257088 15.819691 C 12.257088 15.819691 16.34397 30.129316 20.375474 37.904359 C 24.395903 45.690479 27.984385 48.348613 27.984385 48.348613 C 27.984385 48.348613 36.37966 28.434755 38.904888 12.452721 C 41.430116 -3.529314 37.132798 -34.042484 12.257088 -41.197296 C -12.618621 -48.352108 -27.758913 -39.070788 -34.492854 -31.495105 C -41.226795 -23.930497 -41.43723 -14.737781 -41.43723 -14.737781 C -41.43723 -14.737781 -34.005529 -13.907114 -25.588103 -13.34226 C -17.170677 -12.777407 -11.987314 -10.883486 -11.987314 -10.883486 Z M -11.987314 -10.883486 " stroke="#000001" stroke-width="2" stroke-opacity="1" stroke-miterlimit="4"/><path stroke-linecap="round" transform="matrix(0.352691, 0, 0, 0.352691, 455.758921, 104.071441)" fill="none" stroke-linejoin="round" d="M 1.846474 13.409303 C 1.846474 13.409303 -1.841687 -13.404629 -1.841687 -13.404629 " stroke="#000001" stroke-width="2" stroke-opacity="1" stroke-miterlimit="4"/><path stroke-linecap="round" transform="matrix(0.352691, 0, 0, 0.352691, 447.496802, 91.701864)" fill="none" stroke-linejoin="round" d="M -0.910204 4.13476 C -0.910204 4.13476 0.906188 -4.138684 0.906188 -4.138684 " stroke="#000001" stroke-width="2" stroke-opacity="1" stroke-miterlimit="4"/><path stroke-linecap="round" transform="matrix(0.352691, 0, 0, 0.352691, 405.003149, 149.572459)" fill-opacity="1" fill="#ffffff" fill-rule="nonzero" stroke-linejoin="round" d="M 32.232028 -3.306604 C 32.232028 -3.306604 25.56454 -9.176652 20.359027 -10.505719 C 15.164589 -11.845862 8.098381 -10.106999 2.903943 -11.845862 C -2.301571 -13.573649 -7.761822 -15.423268 -9.234872 -13.629027 C -10.696846 -11.845862 1.16508 -7.039068 1.16508 -7.039068 C 1.16508 -7.039068 -7.163742 -7.515317 -15.160297 -7.980491 C -23.167927 -8.445665 -31.829016 -7.714678 -31.696109 -5.975814 C -31.563202 -4.248027 -25.227982 -3.306604 -25.227982 -3.306604 C -25.227982 -3.306604 -33.224537 -2.376257 -33.09163 -0.515563 C -32.958723 1.356207 -22.160051 1.489114 -22.160051 1.489114 C -22.160051 1.489114 -29.757886 3.826057 -28.960446 7.015818 C -28.163005 10.216655 -5.502408 7.015818 -5.502408 7.015818 C -5.502408 7.015818 -17.763054 11.423892 -17.032067 13.417492 C -16.30108 15.422169 -0.0975343 10.626451 6.569953 9.884389 C 13.226365 9.153402 18.498332 13.904817 18.498332 13.904817 C 18.498332 13.904817 25.7639 13.085226 29.496364 8.090148 C 33.228828 3.083994 32.232028 -3.306604 32.232028 -3.306604 Z M 32.232028 -3.306604 " stroke="#000001" stroke-width="2" stroke-opacity="1" stroke-miterlimit="4"/><path stroke-linecap="round" transform="matrix(0.352691, 0, 0, 0.352691, 159.086235, -20.913765)" fill="none" stroke-linejoin="round" d="M 672.030958 480.080414 C 672.030958 480.080414 695.898791 480.080414 695.898791 480.080414 " stroke="#000001" stroke-width="2" stroke-opacity="1" stroke-miterlimit="4"/><path stroke-linecap="round" transform="matrix(0.352691, 0, 0, 0.352691, 400.855177, 149.964641)" fill="none" stroke-linejoin="round" d="M -10.399124 0.377144 C -10.399124 0.377144 10.400779 -0.375994 10.400779 -0.375994 " stroke="#000001" stroke-width="2" stroke-opacity="1" stroke-miterlimit="4"/><path stroke-linecap="round" transform="matrix(0.352691, 0, 0, 0.352691, 404.745677, 151.60783)" fill="none" stroke-linejoin="round" d="M -4.772386 1.244844 C -4.772386 1.244844 4.763671 -1.247157 4.763671 -1.247157 " stroke="#000001" stroke-width="2" stroke-opacity="1" stroke-miterlimit="4"/><path stroke-linecap="round" transform="matrix(0.352691, 0, 0, 0.352691, 431.783355, 153.853771)" fill-opacity="1" fill="#fdbd00" fill-rule="nonzero" stroke-linejoin="round" d="M 63.933243 -102.300141 C 63.933243 -102.300141 44.119065 -99.40942 32.988126 -92.631177 C 21.846112 -85.852934 7.049163 -5.422211 7.049163 -5.422211 C 7.049163 -5.422211 -41.184904 -31.217192 -41.184904 -31.217192 C -41.184904 -31.217192 -66.005236 9.585174 -66.005236 9.585174 C -66.005236 9.585174 -37.297383 28.756969 -9.165458 43.232727 C 18.966466 57.708485 28.21456 41.970113 28.21456 41.970113 C 28.21456 41.970113 30.518276 96.041001 30.518276 96.041001 C 30.518276 96.041001 38.105035 98.577305 47.142693 100.437999 C 56.191426 102.298693 62.69278 100.670586 62.69278 100.670586 C 62.69278 100.670586 66.004373 28.657289 63.933243 -4.646922 C 61.873189 -37.951133 63.933243 -102.300141 63.933243 -102.300141 Z M 63.933243 -102.300141 " stroke="#000001" stroke-width="2" stroke-opacity="1" stroke-miterlimit="4"/><path stroke-linecap="round" transform="matrix(0.352691, 0, 0, 0.352691, 159.086235, -20.913765)" fill="none" stroke-linejoin="round" d="M 801.404583 537.496121 C 801.404583 537.496121 801.404583 449.168524 801.404583 449.168524 " stroke="#000001" stroke-width="2" stroke-opacity="1" stroke-miterlimit="4"/><path stroke-linecap="round" transform="matrix(0.352691, 0, 0, 0.352691, 436.465995, 152.812634)" fill="none" stroke-linejoin="round" d="M -6.227729 -2.470231 C -6.227729 -2.470231 6.232277 2.469469 6.232277 2.469469 " stroke="#000001" stroke-width="2" stroke-opacity="1" stroke-miterlimit="4"/><g clip-path="url(#3ae5cf82fd)"><path stroke-linecap="round" transform="matrix(0.352691, 0, 0, 0.352691, 527.028596, 151.997918)" fill-opacity="1" fill="#ffffff" fill-rule="nonzero" stroke-linejoin="round" d="M -34.570375 -5.819843 C -34.570375 -5.819843 -22.50909 -12.897126 -17.203896 -13.694567 C -11.898702 -14.503083 -5.04293 -12.077535 0.306566 -13.273695 C 5.656062 -14.480931 11.271371 -15.765697 12.556136 -13.838549 C 13.829825 -11.922477 1.547028 -8.333995 1.547028 -8.333995 C 1.547028 -8.333995 9.886926 -7.957426 17.894556 -7.625159 C 25.891111 -7.281817 34.441444 -5.686936 34.142404 -3.9813 C 33.832288 -2.264588 27.44169 -1.976623 27.44169 -1.976623 C 27.44169 -1.976623 35.305338 -0.248836 34.984146 1.600783 C 34.662955 3.439326 23.908586 2.497903 23.908586 2.497903 C 23.908586 2.497903 31.229531 5.576909 30.121975 8.678066 C 29.003344 11.779223 6.774693 6.330047 6.774693 6.330047 C 6.774693 6.330047 18.536939 11.934281 17.606592 13.850353 C 16.676244 15.766425 1.037553 9.375826 -5.519179 7.980306 C -12.075911 6.57371 -23.738477 14.825002 -23.738477 14.825002 C -23.738477 14.825002 -28.877537 11.435881 -32.08945 6.086385 C -35.301362 0.736889 -34.570375 -5.819843 -34.570375 -5.819843 Z M -34.570375 -5.819843 " stroke="#000001" stroke-width="2" stroke-opacity="1" stroke-miterlimit="4"/></g><path stroke-linecap="round" transform="matrix(0.352691, 0, 0, 0.352691, 532.517539, 150.880594)" fill="none" stroke-linejoin="round" d="M 11.878649 1.191376 C 11.878649 1.191376 -11.878429 -1.189869 -11.878429 -1.189869 " stroke="#000001" stroke-width="2" stroke-opacity="1" stroke-miterlimit="4"/><path stroke-linecap="round" transform="matrix(0.352691, 0, 0, 0.352691, 531.823795, 152.378455)" fill="none" stroke-linejoin="round" d="M 10.312547 1.418951 C 10.312547 1.418951 -10.310147 -1.416393 -10.310147 -1.416393 " stroke="#000001" stroke-width="2" stroke-opacity="1" stroke-miterlimit="4"/><path stroke-linecap="round" transform="matrix(0.352691, 0, 0, 0.352691, 527.787932, 153.623805)" fill="none" stroke-linejoin="round" d="M 4.621715 1.720099 C 4.621715 1.720099 -4.615303 -1.724401 -4.615303 -1.724401 " stroke="#000001" stroke-width="2" stroke-opacity="1" stroke-miterlimit="4"/><path stroke-linecap="round" transform="matrix(0.352691, 0, 0, 0.352691, 491.968967, 153.623455)" fill-opacity="1" fill="#fdbd00" fill-rule="nonzero" stroke-linejoin="round" d="M -77.285877 -102.389179 C -77.285877 -102.389179 -56.131556 -103.751473 -37.690747 -99.132964 C -19.249939 -94.50338 15.804211 -8.557028 15.804211 -8.557028 C 15.804211 -8.557028 72.16774 -28.050015 72.16774 -28.050015 C 72.16774 -28.050015 82.080367 20.93719 82.080367 20.93719 C 82.080367 20.93719 39.98216 40.97288 14.043197 43.885752 C -11.884691 46.8097 -19.249939 36.310069 -19.249939 36.310069 C -19.249939 36.310069 -13.368816 96.694026 -13.368816 96.694026 C -13.368816 96.694026 -26.892076 100.869512 -38.953361 102.309335 C -51.014647 103.760234 -68.403278 102.309335 -68.403278 102.309335 C -68.403278 102.309335 -79.955087 44.871477 -81.018341 -3.993897 C -82.081595 -52.859271 -77.285877 -102.389179 -77.285877 -102.389179 Z M -77.285877 -102.389179 " stroke="#000001" stroke-width="2" stroke-opacity="1" stroke-miterlimit="4"/><path stroke-linecap="round" transform="matrix(0.352691, 0, 0, 0.352691, 479.851272, 151.521785)" fill="none" stroke-linejoin="round" d="M 15.10789 42.269026 C 15.10789 42.269026 -15.10624 -42.27073 -15.10624 -42.27073 " stroke="#000001" stroke-width="2" stroke-opacity="1" stroke-miterlimit="4"/><path stroke-linecap="round" transform="matrix(0.352691, 0, 0, 0.352691, 499.083478, 152.777009)" fill-opacity="1" fill="#000001" fill-rule="nonzero" stroke-linejoin="round" d="M -4.367873 -6.157062 C -4.367873 -6.157062 -0.0705555 9.171514 -0.0705555 9.171514 C -0.0705555 9.171514 4.370744 -9.18069 4.370744 -9.18069 C 4.370744 -9.18069 -4.367873 -6.157062 -4.367873 -6.157062 Z M -4.367873 -6.157062 " stroke="#000001" stroke-width="2" stroke-opacity="1" stroke-miterlimit="4"/><path stroke-linecap="round" transform="matrix(0.352691, 0, 0, 0.352691, 305.628973, 231.265191)" fill-opacity="1" fill="#ffffff" fill-rule="nonzero" stroke-linejoin="round" d="M 68.801194 -182.557239 C 68.801194 -182.557239 -68.801574 -182.557239 -68.801574 -182.557239 C -68.801574 -182.557239 -68.801574 182.559698 -68.801574 182.559698 C -68.801574 182.559698 68.801194 182.559698 68.801194 182.559698 C 68.801194 182.559698 68.801194 -182.557239 68.801194 -182.557239 Z M 68.801194 -182.557239 " stroke="#000001" stroke-width="2" stroke-opacity="1" stroke-miterlimit="4"/><path stroke-linecap="round" transform="matrix(0.352691, 0, 0, 0.352691, 307.788505, 162.98776)" fill-opacity="1" fill="#ffffff" fill-rule="nonzero" stroke-linejoin="round" d="M 74.916674 -11.02978 C 74.916674 -11.02978 -74.924588 -11.02978 -74.924588 -11.02978 C -74.924588 -11.02978 -74.924588 11.032737 -74.924588 11.032737 C -74.924588 11.032737 74.916674 11.032737 74.916674 11.032737 C 74.916674 11.032737 74.916674 -11.02978 74.916674 -11.02978 Z M 74.916674 -11.02978 " stroke="#000001" stroke-width="2" stroke-opacity="1" stroke-miterlimit="4"/><path stroke-linecap="round" transform="matrix(0.352691, 0, 0, 0.352691, 268.734659, 167.858776)" fill-opacity="1" fill="#ffffff" fill-rule="nonzero" stroke-linejoin="round" d="M 35.806482 -24.840783 C 35.806482 -24.840783 -35.808094 2.781665 -35.808094 2.781665 C -35.808094 2.781665 -35.808094 24.844182 -35.808094 24.844182 C -35.808094 24.844182 35.806482 -2.778266 35.806482 -2.778266 C 35.806482 -2.778266 35.806482 -24.840783 35.806482 -24.840783 Z M 35.806482 -24.840783 " stroke="#000001" stroke-width="2" stroke-opacity="1" stroke-miterlimit="4"/><path stroke-linecap="round" transform="matrix(0.352691, 0, 0, 0.352691, 270.139094, 231.265191)" fill-opacity="1" fill="#fdbd00" fill-rule="nonzero" stroke-linejoin="round" d="M 31.835503 -182.557239 C 31.835503 -182.557239 -31.82682 -158.002721 -31.82682 -158.002721 C -31.82682 -158.002721 -31.82682 182.559698 -31.82682 182.559698 C -31.82682 182.559698 31.835503 182.559698 31.835503 182.559698 C 31.835503 182.559698 31.835503 -182.557239 31.835503 -182.557239 Z M 31.835503 -182.557239 " stroke="#000001" stroke-width="2" stroke-opacity="1" stroke-miterlimit="4"/><path stroke-linecap="round" transform="matrix(0.352691, 0, 0, 0.352691, 305.628973, 196.316001)" fill-opacity="1" fill="#1fba7e" fill-rule="nonzero" stroke-linejoin="round" d="M 35.375151 0.0011504 C 35.375151 -26.480515 19.537099 -47.956028 -0.000190079 -47.956028 C -19.537479 -47.956028 -35.375531 -26.480515 -35.375531 0.0011504 C -35.375531 26.482816 -19.537479 47.947253 -0.000190079 47.947253 C 19.537099 47.947253 35.375151 26.482816 35.375151 0.0011504 Z M 35.375151 0.0011504 " stroke="#000001" stroke-width="2" stroke-opacity="1" stroke-miterlimit="4"/><path stroke-linecap="round" transform="matrix(0.352691, 0, 0, 0.352691, 305.629326, 196.316351)" fill-opacity="1" fill="#ffffff" fill-rule="nonzero" stroke-linejoin="round" d="M -25.497131 10.488713 C -25.497131 10.488713 -18.608133 3.245296 -18.608133 3.245296 C -18.608133 3.245296 -12.206458 11.097869 -12.206458 11.097869 C -12.206458 11.097869 18.782961 -27.367554 18.782961 -27.367554 C 18.782961 -27.367554 25.494751 -19.038732 25.494751 -19.038732 C 25.494751 -19.038732 -11.896343 27.367868 -11.896343 27.367868 C -11.896343 27.367868 -25.497131 10.488713 -25.497131 10.488713 Z M -25.497131 10.488713 " stroke="#000001" stroke-width="2" stroke-opacity="1" stroke-miterlimit="4"/><path stroke-linecap="round" transform="matrix(0.352691, 0, 0, 0.352691, 283.350898, 178.427871)" fill-opacity="1" fill="#000001" fill-rule="nonzero" stroke-linejoin="round" d="M -69.286825 -8.201839 C -69.286825 -8.201839 -69.286825 32.744509 -69.286825 32.744509 C -69.286825 32.744509 -5.635577 -23.61902 -5.635577 -23.61902 C -5.635577 -23.61902 69.290592 -32.745282 69.290592 -32.745282 C 69.290592 -32.745282 -5.635577 -32.745282 -5.635577 -32.745282 C -5.635577 -32.745282 -69.286825 -8.201839 -69.286825 -8.201839 Z M -69.286825 -8.201839 " stroke="#000001" stroke-width="2" stroke-opacity="1" stroke-miterlimit="4"/><path stroke-linecap="round" transform="matrix(0.352691, 0, 0, 0.352691, 367.255004, 231.265191)" fill-opacity="1" fill="#ffffff" fill-rule="nonzero" stroke-linejoin="round" d="M -68.793422 -182.557239 C -68.793422 -182.557239 68.79827 -182.557239 68.79827 -182.557239 C 68.79827 -182.557239 68.79827 182.559698 68.79827 182.559698 C 68.79827 182.559698 -68.793422 182.559698 -68.793422 182.559698 C -68.793422 182.559698 -68.793422 -182.557239 -68.793422 -182.557239 Z M -68.793422 -182.557239 " stroke="#000001" stroke-width="2" stroke-opacity="1" stroke-miterlimit="4"/><path stroke-linecap="round" transform="matrix(0.352691, 0, 0, 0.352691, 365.095473, 162.98776)" fill-opacity="1" fill="#ffffff" fill-rule="nonzero" stroke-linejoin="round" d="M -74.919977 -11.02978 C -74.919977 -11.02978 74.921285 -11.02978 74.921285 -11.02978 C 74.921285 -11.02978 74.921285 11.032737 74.921285 11.032737 C 74.921285 11.032737 -74.919977 11.032737 -74.919977 11.032737 C -74.919977 11.032737 -74.919977 -11.02978 -74.919977 -11.02978 Z M -74.919977 -11.02978 " stroke="#000001" stroke-width="2" stroke-opacity="1" stroke-miterlimit="4"/><path stroke-linecap="round" transform="matrix(0.352691, 0, 0, 0.352691, 404.149326, 167.858776)" fill-opacity="1" fill="#ffffff" fill-rule="nonzero" stroke-linejoin="round" d="M -35.809806 -24.840783 C -35.809806 -24.840783 35.815846 2.781665 35.815846 2.781665 C 35.815846 2.781665 35.815846 24.844182 35.815846 24.844182 C 35.815846 24.844182 -35.809806 -2.778266 -35.809806 -2.778266 C -35.809806 -2.778266 -35.809806 -24.840783 -35.809806 -24.840783 Z M -35.809806 -24.840783 " stroke="#000001" stroke-width="2" stroke-opacity="1" stroke-miterlimit="4"/><path stroke-linecap="round" transform="matrix(0.352691, 0, 0, 0.352691, 402.744894, 231.265191)" fill-opacity="1" fill="#fdbd00" fill-rule="nonzero" stroke-linejoin="round" d="M -31.827759 -182.557239 C -31.827759 -182.557239 31.823489 -158.002721 31.823489 -158.002721 C 31.823489 -158.002721 31.823489 182.559698 31.823489 182.559698 C 31.823489 182.559698 -31.827759 182.559698 -31.827759 182.559698 C -31.827759 182.559698 -31.827759 -182.557239 -31.827759 -182.557239 Z M -31.827759 -182.557239 " stroke="#000001" stroke-width="2" stroke-opacity="1" stroke-miterlimit="4"/><path stroke-linecap="round" transform="matrix(0.352691, 0, 0, 0.352691, 367.255004, 196.316001)" fill-opacity="1" fill="#d653b3" fill-rule="nonzero" stroke-linejoin="round" d="M 35.383303 0.0011504 C 35.383303 -26.480515 19.534176 -47.956028 -0.00311371 -47.956028 C -19.540403 -47.956028 -35.378455 -26.480515 -35.378455 0.0011504 C -35.378455 26.482816 -19.540403 47.947253 -0.00311371 47.947253 C 19.534176 47.947253 35.383303 26.482816 35.383303 0.0011504 Z M 35.383303 0.0011504 " stroke="#000001" stroke-width="2" stroke-opacity="1" stroke-miterlimit="4"/><path stroke-linecap="round" transform="matrix(0.352691, 0, 0, 0.352691, 367.255004, 196.314241)" fill-opacity="1" fill="#ffffff" fill-rule="nonzero" stroke-linejoin="round" d="M 22.048328 19.033952 C 22.048328 19.033952 6.708676 -0.00493722 6.708676 -0.00493722 C 6.708676 -0.00493722 22.048328 -19.032751 22.048328 -19.032751 C 22.048328 -19.032751 15.336538 -27.361572 15.336538 -27.361572 C 15.336538 -27.361572 -0.00311371 -8.322683 -0.00311371 -8.322683 C -0.00311371 -8.322683 -15.342765 -27.361572 -15.342765 -27.361572 C -15.342765 -27.361572 -22.054555 -19.032751 -22.054555 -19.032751 C -22.054555 -19.032751 -6.714904 -0.00493722 -6.714904 -0.00493722 C -6.714904 -0.00493722 -22.054555 19.033952 -22.054555 19.033952 C -22.054555 19.033952 -15.342765 27.362773 -15.342765 27.362773 C -15.342765 27.362773 -0.00311371 8.323884 -0.00311371 8.323884 C -0.00311371 8.323884 15.336538 27.362773 15.336538 27.362773 C 15.336538 27.362773 22.048328 19.033952 22.048328 19.033952 Z M 22.048328 19.033952 " stroke="#000001" stroke-width="2" stroke-opacity="1" stroke-miterlimit="4"/><path stroke-linecap="round" transform="matrix(0.352691, 0, 0, 0.352691, 389.533108, 178.427871)" fill-opacity="1" fill="#000001" fill-rule="nonzero" stroke-linejoin="round" d="M 69.294515 -8.201839 C 69.294515 -8.201839 69.294515 32.744509 69.294515 32.744509 C 69.294515 32.744509 5.632192 -23.61902 5.632192 -23.61902 C 5.632192 -23.61902 -69.293977 -32.745282 -69.293977 -32.745282 C -69.293977 -32.745282 5.632192 -32.745282 5.632192 -32.745282 C 5.632192 -32.745282 69.294515 -8.201839 69.294515 -8.201839 Z M 69.294515 -8.201839 " stroke="#000001" stroke-width="2" stroke-opacity="1" stroke-miterlimit="4"/><path stroke-linecap="round" transform="matrix(0.352691, 0, 0, 0.352691, 430.663227, 54.657329)" fill-opacity="1" fill="#ffffff" fill-rule="nonzero" stroke-linejoin="round" d="M 25.22142 39.49239 C 36.463114 32.514786 45.124202 21.073732 48.391493 6.941316 C 54.771016 -20.647905 38.279506 -48.015616 11.554178 -54.195779 C -15.171151 -60.387018 -42.007234 -43.031614 -48.386757 -15.453467 C -54.777356 12.135754 -38.285846 39.503465 -11.560518 45.694704 C -3.730096 47.50002 4.100325 47.278509 11.432346 45.384588 C 11.432346 45.384588 26.461882 60.380897 26.461882 60.380897 C 26.461882 60.380897 25.22142 39.49239 25.22142 39.49239 Z M 25.22142 39.49239 " stroke="#000001" stroke-width="2" stroke-opacity="1" stroke-miterlimit="4"/><path stroke-linecap="round" transform="matrix(0.352691, 0, 0, 0.352691, 459.136273, 54.652385)" fill-opacity="1" fill="#d653b3" fill-rule="nonzero" stroke-linejoin="round" d="M -19.380968 31.033604 C -29.160688 27.20146 -36.946807 19.802985 -40.302702 9.846056 C -46.859434 -9.602629 -34.122539 -31.443635 -11.860662 -38.94179 C 10.390139 -46.439944 33.748497 -36.759904 40.305229 -17.322295 C 46.850885 2.115314 34.125066 23.95632 11.863189 31.46555 C 5.350759 33.658511 -1.261351 34.378423 -7.519042 33.813569 C -7.519042 33.813569 -19.547101 46.439709 -19.547101 46.439709 C -19.547101 46.439709 -19.380968 31.033604 -19.380968 31.033604 Z M -19.380968 31.033604 " stroke="#000001" stroke-width="2" stroke-opacity="1" stroke-miterlimit="4"/><path stroke-linecap="round" transform="matrix(0.352691, 0, 0, 0.352691, 369.204359, 49.188855)" fill-opacity="1" fill="#d653b3" fill-rule="nonzero" stroke-linejoin="round" d="M 23.266255 27.120206 C 32.481122 22.977946 39.292592 15.75668 41.430175 6.508587 C 45.616737 -11.544577 30.443219 -30.483786 7.56111 -35.777904 C -15.320998 -41.072022 -37.250609 -30.716373 -41.437171 -12.663209 C -45.612657 5.389955 -30.450214 24.318089 -7.568106 29.612207 C -0.867392 31.162785 5.755794 31.362145 11.869503 30.431798 C 11.869503 30.431798 25.248781 41.064337 25.248781 41.064337 C 25.248781 41.064337 23.266255 27.120206 23.266255 27.120206 Z M 23.266255 27.120206 " stroke="#000001" stroke-width="2" stroke-opacity="1" stroke-miterlimit="4"/><path stroke-linecap="round" transform="matrix(0.352691, 0, 0, 0.352691, 305.291092, 63.295433)" fill-opacity="1" fill="#1fba7e" fill-rule="nonzero" stroke-linejoin="round" d="M -17.782029 20.726464 C -24.81501 17.558854 -30.020523 12.043224 -31.659706 4.977016 C -34.849468 -8.823132 -23.264431 -23.287815 -5.776121 -27.34147 C 11.701114 -31.38405 28.469513 -23.476099 31.659275 -9.67595 C 34.849036 4.124198 23.264 18.588881 5.775689 22.63146 C 0.65878 23.816545 -4.391676 23.971603 -9.065562 23.251692 C -9.065562 23.251692 -19.29938 31.381153 -19.29938 31.381153 C -19.29938 31.381153 -17.782029 20.726464 -17.782029 20.726464 Z M -17.782029 20.726464 " stroke="#000001" stroke-width="2" stroke-opacity="1" stroke-miterlimit="4"/><path stroke-linecap="round" transform="matrix(0.352691, 0, 0, 0.352691, 255.351468, 36.715229)" fill-opacity="1" fill="#1fba7e" fill-rule="nonzero" stroke-linejoin="round" d="M 26.504084 30.888647 C 36.99264 26.181533 44.756608 17.952392 47.193231 7.408458 C 51.955722 -13.158859 34.677847 -34.7119 8.617053 -40.748081 C -17.443742 -46.773186 -42.430207 -34.988789 -47.192698 -14.421473 C -51.955189 6.145844 -34.677314 27.698885 -8.61652 33.735066 C -0.985458 35.49608 6.556999 35.728667 13.523526 34.665413 C 13.523526 34.665413 28.763498 46.771001 28.763498 46.771001 C 28.763498 46.771001 26.504084 30.888647 26.504084 30.888647 Z M 26.504084 30.888647 " stroke="#000001" stroke-width="2" stroke-opacity="1" stroke-miterlimit="4"/><path stroke-linecap="round" transform="matrix(0.352691, 0, 0, 0.352691, 233.914917, 44.086117)" fill-opacity="1" fill="#ffffff" fill-rule="nonzero" stroke-linejoin="round" d="M -31.711754 36.947561 C -44.260365 31.321176 -53.541685 21.475003 -56.454557 8.871014 C -62.147395 -15.738882 -41.491474 -41.533863 -10.302695 -48.744053 C 20.875008 -55.954243 50.767947 -41.86613 56.460785 -17.256234 C 62.153623 7.342587 41.486627 33.137568 10.308923 40.358834 C 1.171586 42.46319 -7.843921 42.740079 -16.172743 41.46639 C -16.172743 41.46639 -34.414191 55.964299 -34.414191 55.964299 C -34.414191 55.964299 -31.711754 36.947561 -31.711754 36.947561 Z M -31.711754 36.947561 " stroke="#000001" stroke-width="2" stroke-opacity="1" stroke-miterlimit="4"/></svg>